<mxfile host="app.diagrams.net" agent="Mozilla/5.0 (Windows NT 10.0; Win64; x64; rv:143.0) Gecko/20100101 Firefox/143.0" version="28.2.7">
  <diagram name="PÃ¡gina-1" id="2mxkec7UoqlnyLtAC5mM">
    <mxGraphModel dx="1678" dy="939" grid="1" gridSize="10" guides="1" tooltips="1" connect="1" arrows="1" fold="1" page="1" pageScale="1" pageWidth="827" pageHeight="1169" background="light-dark(#121212,#000000)" math="0" shadow="0">
      <root>
        <mxCell id="0" />
        <mxCell id="1" parent="0" />
        <mxCell id="Xg-LjAHzdJd03FzE3i4f-1" value="" style="shape=image;verticalLabelPosition=bottom;labelBackgroundColor=default;verticalAlign=top;aspect=fixed;imageAspect=0;image=data:image/png,iVBORw0KGgoAAAANSUhEUgAAAjIAAAJQCAYAAACU8I4IAAAgAElEQVR4Xu2dfdAuR1nm55xiSXAVAyoSxNWsYhFWdwmIkABxRQLi8iEJED4kuBC+SlExuAgYJYWAFAssFBKCikiAYAKYgKAYjayERVTwD1bYFTFSQsiqhGyxQALW++wzTzKHOZOZ6b5n+uq55+nfW5U6Oe/Tfd93/67umat75n3Poeuuu25Tbb82m011cHBQXX/99dXnP//56ktf+lL1xS9+sfqXf/mX+uPBr7rfvnzV4+crjsA+6R43YlpBwB+BCy64oPqnf/qnI4UdOnTIX5FUJCFQkta1D6m9yQ033FB94QtfqL7yla/smDYMDtVGpr6B1zemekFcc8011W2Ov0N17Nd/ffV13/AN1S1ueUuJCEsFDS1ziy0LxVpqjMXmtYhXLCQGHkNAtbZzTdEp9eeqLYb/XrRpRIgB2xUs1KdP4FCfNtSYCTIUL6ZvnWtu/1a91/7zP1d/94lP7P57x1vevPMp9YFL83Xo2muv3XqYTfWpT32q+ur2u996wr+tjrnVrfZiHo0Nwjpv+mLF6rn3MD0N0LKYPdVNLe4IKNZ3ruk5tfZc9bkT20NBbdFihIgROYWZ6IsRk7th2u1v6dujy2c/85nqDee/pnr/FVdUV1999e4Q5tDnPve5TX0S83+3j5L+zV3+nQc5s9VgMcwYmWyyzEsUcwGYl4HeBRGYec3tJZVzilrrz1lbQdPIPlSLqYkRea6hSWlmYuqNIPbiX3xe9d7f+73dycyhT3/605u//du/rb7zP9y1iJOYvtO1qYs3kR4RktEkmsBUMaMT0LAkAqo1nnOaWsaQs66S5pF5rNZHBiGRx4QN9R06WWm+b+0f2z4ArT6ZeeaTnlh98pOfrA599KMf3Rzc8pjqdt/xHWbWdNi+bAQEXwS4EvvSg2p2BGKvE6rpu3R+poGRQGojU6efa2ZSnerETsYIZBe/8Y3V+a94eXXoQx/60Oa4O357detv+qaIbjQZIpBQGyDPIaC6E8ypib4QiDQzqukbe31S5WcCTCBgebwU65bnmpEJw1B2+csPfrA69+eeWR264oorNt999++v/tUxxyjzFRE79mJRBIylBsmVeCny5I0gEHONUE7hpfNHIKJJH4FYUxMj8NjpTGx/JyrVP830pEc+ojr0rne9a/P9pz3ASVnrLmNlc2DdsIeqV94F9pMYo8pIIPYakXMa99WUM39G/OtNZXnUFDPJ5j5mckTykafdvzr0zne+c3OPBzzQUVnrLSVm/qx3dCupnCvwSoSizDECQ9cS1fTOnQ/1jQSsbjPmZrQnj5l2Rubiiy/e3PehDxulevtj5v1SvGtuuPG38O37V8zcaTNQz6M6vrWm1WukutKvHgwDWBsB671rzvgwMnPoafo+9+d+tnrD9jc3D/3G+cOHD1c/8dSnVi96+X/rL2Chi/8973KX6uWvfW1171NP7a3rA3/6p9U5T3969Wd//ddJwO2MzHvf+97Nv//B/xhlZOpfEfyOv7qq+shVV1XXf/66XZ9jjz22OuH446szTjmpuv1xx/bGGTIyj3nIg6szH39W9WOPetSRfiff5cTq2c8/78j3PrXNda8T71x99vobqvqzH3/S2dVPnnPOaL3HH3v0+z6X1b8459OfqZ5+1uN3cS69+OLqz668svrVV70qCcgmiGXehO63llh9g2jHnxsrKSR1sBBYdX7iQyAhgZxmpi7b8gQj4TDLDNXAHrhm3eFf36r6k7/4cHX7b7tDL59rP/e56t7f973V1V/88jC/BS7+tVF5+llnVedvf6Koa2bGPps6CXZG5rLLLtv8wAN/JGhkrvj4VdU73nPFrt0pJ55QnXy3u1S32ZqY+uvzW4PzV1d9tjp+a2ROOvHEqmtnhoxM11A0puUJT3nqEZMxxXTURqY2LENf7Zh1zkf/px+tPvixj0/leKRf7JyJvdfGxusWPvd3F80GsWSAWLhL1rjHuafO2aWQeJ8unJQsNTMm5A0Yk6MiRjjG29/qmOp/X/N/qm/8xuMGj9Zvv73XXVPf65y989JnWEImphmC9RoSbWQ+//kvVXe54JU7HV79ffeobnPcbarTtycw9WlMfUqz/Z9q+z/Vs37zHbs299sanfrr9PudvPtzyMh0TURjMP77H11+xFj8wk//dHWv+9znqFOb0BRbysjUdcWIEHvxjInVx0L9yCrEf9HPY+EuWuR+Jp86X5emsYYpE8t2DWNZWm9Z/rZIISFSG5l6UM4u/G3jUpc3dErT6CE3Mld85JPV4/7w4uonv/6O1avPeVL1sre8p7r+y9dVn73ua0daxx93q+0pyNbE3O3E6uPbU44TjjuueuyP3m/UyNQf1o+L3vru91TfccIJVf2o6ZnPeU71M2effeR7fZ//wCn33vWrH0HVj4vqr1984YuOPHLqMzJ//j8+UL3ixS+uLnrX7x15tPT0Zz5z99iq+Wpi1Obpt193we7bzelQY7p+8P6n7T4bO/EZMjShud1dYLEXr26/UJ65caf2l11A2oFDg89SRJlJXM+LEUnWMmVi+K5lLHu7QmqRYkUIGJ8jJzLbe+nQ15ETma4baP4eM2mEYjRmpk7R96gpReroE5ljv/yl6javvPFE5r/e6R5V/SpM/SjppBOOr67bnsTUj5Ruf5vjq49v/82D7b+mvf382Oqqz163ewR1yl22pzO3ue1gve0Tl8aANN876R73OOqxT2N0GiPznd/1XTtj0n6Ppk7UfUemNh19RqZ+R6Z7KvRrL3vZrtbmPZy6ltMffWb1rdt/Ebw2Pee/8cLo0yGLQe8DNHUOxqwja+xuTGv/FBM2KkbM4KMC0chCwO18iBzEWqZNDOe1jCVSmiTNalMQ83XNl4dfSYjpf1SbqabmpiC1Sdk9WmqMTM9Pb9zMyJiL1HZwZWTqn1q6avvPZr/sze+ufu3/fbo6Z2tmTtialxO3pyj1V21arrvmqup+J524e0em+zX2U0vN46TaLHRPTOpHSu2XcrtGpjnJqfO1T25iT2T6jEyd432XX37UEOqTmgeffrr5XRrLI9PcRqbOF3NRrNut6p0bruLaK1MneuwcylpUxmS5p1ss76GNR+56M0rhK5V1F9sj7FFGpi1cq61nI2N9tNQVMPZR0+5E5tJLL93c80ceNDoJ2j9+XRuaD37kY9vHStvnSNX1u9OXu21PXmpTU78z0/cV+vHr2njUZuHbvv3bd6cd7cc47fdjchmZ+vFWferT/pr6UrDFlHfZxV60hiZAaGXHxnf26HV8WFOu1EMgpsQKQd+zz2Pn0J4N+6jheJgmsTp4qHWf58JRY7OYGYuRae1CvRqZxsS8ZvuTS/e56cewQy/7TjUyj7j/D1eHXvjCF26eeM6zoo3MlEkYMjK1Qfn77b9g2T1h+fu/+7vqzz7+v3bvz9RfCiNTx22f4NSPlq5835/sHlmlMDJTeE01NNaLVOjiF4oX6p9i7OYYoaKtcK3xzAXTYY0ELPeoXOOLWY9M51xq3JTHspPtCHiHr7tV9YGP/s/qhO0rFLuvzhHFZ6++urr7d39XdfWXRn78OvNw63RtE1P/+HV7WFYzE1P+zsj81E+eu3ney34xpr2sTW0e3vSbv3HUj0DX76a0f3pJaWSax0nNy77dx0u1maq/Uv2Y9hSQoYvUlAvUWMyYeKGapoxzdp+YwttJQoOwxps9AAKshcA+mpm5j8PXot0idcaamptEeO4zI38h3isGfiHeAoPcbDbVyd/7vdXLzj+/OqX1C/G6Zubnnva06kMf+1iSCndG5mlPfe7ml1/5y0kCEkRLIPUTkLnxQh5AS2MgutV4hAZhjbfIoEm6BIHQ1ImpKfX0iq0p9PJ+6rpiWOx1G6vrDQk58M6MmmFo3tT5azNz6NChbO9WYmTUqieOP9d4dMuZGy+01hIPPy5czBXYUnhMvLjKaLWHBCxTqW/4quk1t67dDWkP9VpsSF1BQnBDAi5gZKa8K9nXJzQ0q0YYGSuxhdtb10Ko3Lnx5k7IepLPjXGzMc69QHQDhuKFIPM5BBYikGJtMf0TidcnxhjcGPEkF9Dh8U4xMk00pe/CyCSao7nCWE8nQ3XNjRez1oZqiDmiDNXf+3noymstOhRvUpF0gkAeAtbpjo8X6WI9/p4rnGAYKXxXU1bK4WFkBGIrQzbip7q3zo03dTJKjxtDcKxFh+IpBSd2cQTmnpJ2gVmnO0bGMOUsF9AxIaQXRMN4Ak1jLoXKYTb5uzkwMuk0XmUkyzrsG+DUi+ScI8og6NQXhZjVGyyq02DuUZg1H+1XQyC1kZm7A1ZM/9WIESrUegG13OWnXlxDNQ98PmQSphhbyzDr+LFDxchMFJduYQKxk7COFLooWmINVpb6mVWo6DCio1tYn5Vb49MeAgMEpqyv1NO/eHFi7/JTxJoJ1/rKzZwNacp3ZjiRmSk83b9GILTuYi6IoRhRvNdoZGJcXtTgaQSBcQJT1ljM2oW7gUBIhNTXMENpFjPj5Z0ZjIxBYJrOu0DGXAxD6ztKg9QXgZjCowq7qVHsjswSk7bFEJj76GnqGku9DPZSMMujppAQqa9jkcBjHzHF7r2sl7sQlvYwmlofyS/Ei1SXZlEEhiZh7EXQMokHC7JsKWJGFVv8WCzLwFLkixkXbVZHYO76ag/YMiX7bh6rg5ejYMu7byEBFjYyDS5rmX2YVWZmkpGxXl9DAHLMK3LkJTD39Q+Xc8Y68bvIrYOamy+v5GTLSCClkanLtk7N2F14RiS+UqU0Mm3YU4SaSGaOf1rqnZkjj5Zec/6vTBw23SAAAQhAAAIQgMAyBE6t/2HK+t9awsgsIwBZIQABCEAAAhCYTmBnZJ76lOduzn8tJzLTMdITAhCAAAQgAIElCNxkZJ6zNTIvXCI/OSEAAQhAAAIQgMBkAjsj85Qn/8LmtRe8aHIQOkIAAhCAAAQgAIElCOyMzJPP/i+bC173q0vkJycEIAABCEAAAhCYTGBnZM5+0s9vXvfrL5kchI4QgAAEIAABCEBgCQI7I/PE/3zO5jd+86VL5CcnBCAAAQhAAAIQmExgZ2R+4gk/s3n9b71ichA6QgACEIAABCAAgSUI7IzMWY//qc0bfvtVS+QnJwQgAAEIQAACEJhMYGdkHvfYp20ufNNrJgehIwQgAAEIQAACEFiCwM7InPmoszcXvfV1S+QnJwQgAAEIQAACEJhMYGdkzjjjCZtLLvmtyUHoCIE1ETh8+HCw3IODg2AbGsQTCDGHdzxLWkIAAkcT2BmZH/uxx23e8Y4LYQOBIgiEbqo1BG6saacCzNPyJBoEIPA1Ajsj85AHP2pz2TvfChcIFEGgualiVvLJPca8bXLQJJ8mZILAvhDYGZkHPej0zbvf/bZ9GRPjgMAoAYxM/gkSYh76PH/FZIQABNZCYGdkTjvtIZv3vveytdRMnRCYRcBy02y37evXfWQydKLQ164bb6iu0PcbGN3cQ/GHHp31Pf5pxwzVMXaaEmIeij00xub7Yzr0aWiN18dsLt8+XrHzadYCoDME9ozAzsjc74d+ZPNHf/yePRsaw4FAP4HQTbXda8zIDL33MWQohvRo2odu5n2mohtzyHjEmpS+GqfU140z5dHSXL7dukP8h0xRu19qvlZNWdMQgMDNCeyMzA+eev/Nn7zvD+EDgSIIhF48Hbq5TD2dCJ3kWI1CrOEZevdkrJ6xMcbm7ZtEIebdE4/YXDFjsXCo64iJ2W4Xqj0mXux4i1igDBICRgI7I3PqqT+8ed/7Ljd2pTkE1kkgdFOdalj6boIxJxFqIxP7yCnmRduhxymhvhbmQ2bCyrd7wjL2KCekgSX3FEYYmXVeS6jaB4GdkfmhH3rA5o//+A98VEQVEBATmPpoqV1W7I1ZaWSGMIVuylNutEOmIJalhUP3tKNvnKHHRjFm1GJOLG2H+HbHEfNYqekTMoriJUN4CLgmsDMyD3jAQzd/8AeXui6U4iCQikDszddyMjBUm+UGHrsrj60/dTzLzbzLw8JhjHuIc/vzkKGzjifWAIa4W2tMNe+JA4F9JbAzMg976GM2v3vpm/d1jIwLAkcRiDUCGJn+iVPza5uEmNOCEPNYkxAzlS2xFG1DY7UaqJgx0wYCJRPg31oqWf1Cxx5zo2nQxOyuQ48xxl72rPOMnRy0H2H1PU5J9XLuWI2hn8JSGpk2n1gDMPZoJ6TVkHmdwidGV6umhS5Zhg2BUQI7I3PW45+xecNvvxJUECiCQAoj077h9UGb8v5D33s3dZyQEermDz1SmRqvncfCcOxka8ww9vFo2k95R2ZocoeMWrvfFCM0NI6peYtYpAwSAgYCOyPzpCees/n133ipoVt/0/aRc1+L0OezC7gpwFCe7pH42A0gZpeZql7i5CVguQmH2nZvUkPzpq9dyFDEGpLuzX3MHIyZiiEjNbSW6+/HrpNYjqGb+9hPHsVwmKpX31hDp3VjZtYyT/KuDrJBYH0EdkbmyWc/e3PB6148u/qxi1XoQjY7ecDENBfwsWf7XaMTe5FOVTtxyiKQa00oqK6p9jXVqtCKmBDYdwI7I/OUJ//C5rUXvGj2WK1Gpu/5f99u0nKS023brilkVEKfzwZEAAi0CKz5Brum2tdUKwsEAhCwE9gZmac+5Tmb81/7QnvvTo/GCPSZieZZ/9CJyJCJsFyEhvI2pzHt4+E+czTWfzYcAkCgZ7205+QaAI1tPrzWb7mGeB0DdUEAAsMEbjIyz90amV+ZzcliZLrJxk5DYk9kQkakm6NbQ9/zeR4vzZ4WBBggsMYbLEaG6QwBCHgjIDmRaU5AYk5h2kBiTmvGAFqNTMi4xBoob6JSDwQgAAEIQKAUAosZmdBjoO4b/zEnIxiZUqYt44QABCAAAQjcSEBmZNqnMg3s2MdHfY+A5hqZ7jE+78iwBCAAAQhAAALrJ7CYkWmMToOw7zFU/Vno8VRbgiFzMhSnK1/oUdP65WYEEIAABCAAgf0ikNTIqNBY3lWxtB2rN1UcFRPiQgACEIAABCCQ+NFSKqChd11yGBCMTCo1iQMBCEAAAhDQEXB7IjPnxzznmpC5/XVyERkCEIAABCAAgTaBG3+z7/YX4r02wS/EAy0EIAABCEAAAhDISeDGf2tp+08UXJDgnyjIWTi5IAABCEAAAhCAwM7InP2kn9+87tdfAg0IQAACEIAABCCwKgI7I/MTT/jZzet/6+WrKpxiIQABCEAAAhCAwM7IPPYxT9u86c2vgQYEIAABCEAAAhBYFYGdkXn4w3988/a3v3FVhVMsBCAAAQhAAAIQ2BmZBz7wYZvf//3fhQYEIAABCEAAAhBYFYGdkTn11B/evO99l6+qcIqFAAQgAAEIQAACOyNzz3uevPngBz8ADQhAAAIQgAAEILAqAjsjc7e73X3zl3/5F6sqnGIhAAEIQAACEIDAzsicdNJJmw9/+MPQgAAEIAABCEAAAqsisDMyd73rXTcf+chHVlU4xUIAAhCAAAQgAAGMDHMAAhCAAAQgsGYChw+vufrptR8c7PpiZKYjpKcDAvxL5Q5EuKkEtEALPwT8VMK60GuBkdEzJgMEIAABCEBATqA2Tc3XwU2nFW0jpTBVsTFj202BhJGZQo0+bggoF4ebQa6kELTwIxRalKfFkOYYGT9zgUogAAEIQAACEOgh0D2J6TMvQ6c13ROc+u9N/zFzVLerT326bSx5Uol504nMSdufWuLHr1NBJU4+Auw887EOZUKLEKF8n6NFPtahTLm0GDp5ifl+27w0/98Yle74uvHa7fpMTd8jrhAz6+c8WrISoz0EIAABCEDAGYEYwzL2mCn2EdSYWQmZnsbUpEa3MzLff/d7bP78Lz6UOjbxICAnkGu3Ix/IHiRACz8iokV5WkwxMl1KMacnISPTfrQ0dlqTUqGdkXn3u9+9edCDHpQyLrEgAAEIQAACEMhEYIqRGTohGTPClsdHsac8cxHtjMzb3/72zcMf/vC5segPgewE2HlmRz6YEC3Qwg8BP5XkWhdzjUys6XD7jgxGxs+kpxIIQAACEICAlUCskek+7mnytE9nYh8fxfzUUhOreeSkeE+GExnrbKG9KwK5djuuBu20GLTwIwxaoIUfAvpKMDJ6xmSAAAQgAAEIQEBEACMjAkvYPATYeebhHJMFLWIo5WmDFnk4x2RBixhK89pgZObxozcEIAABCEAAAgsSwMgsCJ/U8wmw25nPMFUEtEhFcn4ctJjPMFUEtEhFcjgORkbPmAwQgAAEIAABCIgIYGREYAmbhwC7nTycY7KgRQylPG3QIg/nmCxoEUNpXhuMzDx+9IYABCAAAQhAYEECroxM+99oGPulOWPtYmMsyJzUCQmw20kIc2YotJgJMGF3tEgIc2YotJgJMKL7zsi84AUv2Dzvec+LaK5rEvpNgk3msXaxMXSjIDIEIAABCEAAAjkJuPlHI2NNCEYm5/Twn4vdjh+N0AIt/BDwUwnrQq+Fm0dLGBm92GSAAAQgAAEI7BsBjMwURQ8fntKLPioCBweqyMSFAAQgAAHnBDAyzgWivACB2lRiZJgmEIAABIolgJEpVvo9GThGxo2QvAvgRooKLdDCDwF9JRgZPWMyKAlgZJR0iQ0BCEDAPQE3RqYmNfQ7YPpeBG7Idn/fDL9Hxv2cS1sgRiYtzxnROAWYAS9xV7RIDHRGOLSYAS+yqysjE1kzzSDwNQIYGWYDBCAAgaIJYGSKln8PBo+RcSMiO083UvCOjB8p0CKDFjsj87a3vW1z+umnZ0hHCggkJoCRSQyUcBCAAATWRQAjsy69qLZLACPjZk5wIuNGCk4B/EiBFhm0wMhkgEwKIQGMjBAuoSEAAQj4J4CR8a8RFY4RwMi4mR+cyLiRglMAP1KgRQYtMDIZIJNCSAAjI4RLaAhAAAL+CWBk/GtEhZzIrGIOcCLjRya0QAs/BPSVYGT0jMmgJMCJjJIusSEAAQi4J4CRcS8RBY4SwMi4mSCcAriRgvcy/EiBFhm0wMhkgEwKIQGMjBAuoSEAAQj4J4CR8a8RFY4RwMi4mR+cyLiRglMAP1KgRQYtMDIZIJNCSAAjI4RLaAhAAAL+CWBk/GtEhZzIrGIOcCLjRya0QAs/BPSVYGT0jMmgJMCJjJIusSEAAQi4J4CRcS8RBY4SwMi4mSCcAriRgvcy/EiBFhm0wMhkgEwKIQGMjBAuoSEAAQj4J4CR8a8RFY4RwMi4mR+cyLiRglMAP1KgRQYtMDIZIJNCSAAjI4RLaAhAAAL+CWBk/GtEhZzIrGIOcCLjRya0QAs/BPSVYGT0jMmgJMCJjJIusSEAAQi4J4CRcS8RBY4SwMi4mSCcAriRgvcy/EiBFhm0wMhkgEwKIQGMjBAuoSEAAQj4J+DGyNS7ue7XwcFBL8F2226bsc/8y0GFZgIYGTMyVQdOZFRk7XHRws5M1QMtVGS/FteVkRkyLm0M3UnR/vvYZ3qUZFiEAEZmEewkhQAEIOCFAEbGixLUMY0ARmYaN0Evdp4CqBNDosVEcIJuaCGA2gnpysi0axt7rNT+jBMZ/SRxnQEj41oeioMABCCgJuDGyHQHOuRi5zxaavrO/bOpdW4c+h+ualM6i8NWjPrtqtlx5tZB/3k6wi8pv+YaxbqYeX1xOC/VpmCN8XdG5pJLLtmcccYZ0votL/PWhSiMjHSABF+GACcyy3AnKwQgAAEnBLIZmdB4Y1/UnXMiE6qBz1dIACPjRjTeBXAjBb+7xI8UaJFBC4xMBsikEBLAyAjhEhoCEICAfwJujEzzOKlBNvRC71i70Gf+5aBCMwGMjBmZqgMnMiqy9rhoYWem6oEWKrJfi+vKyOiHS4a9I4CR2TtJGRAEIAABCwGMjIUWbf0RwMi40YSdpxspeC/DjxRokUELjEwGyKQQEuj5py2E2QgdIjDwz4qEuvE5BCAAgakEMDJTydHPBQFOAVzIcGMRnI65EYN14UYKTmQySIGRyQCZFBAoggBGpgiZGSQEvBHAyHhThHpMBNh5mnBpG2NktHwN0VkXBljipmghBrwNj5HRMyYDBMoggJEpQ2dGCQFnBDAyzgShHBsBdjs2XtLWGBkpXktw1oWFlrYtWmj51tExMnrGZIBAGQQwMmXozCgh4IwARsaZIJRjI8Bux8ZL2hojI8VrCc66sNDStkULLd8jJzIXX3zx5hGPeIQ+GxkgAIH9JYCR2V9tGRkEHBPYnchgZBwrRGmjBNjtOJogGBk3YrAu3EjB75HJIAVGJgNkUkCgCAIYmSJkZpAQ8EYAI+NNEeoxEWDnacKlbYyR0fI1RGddGGCJm6KFGPA2PEZGz5gMECiDAEamDJ0ZJQScEcDIOBOEcmwE2O3YeElbY2SkeC3BWRcWWtq2aKHlW0fHyOgZkwECZRDAyJShM6OEgDMCGBlnglCOjQC7HRsvaWuMjBSvJTjrwkJL2xYttHw5kdHzJQMEyiGAkSlHa0YKAUcEOJFxJAal2Amw27Ezk/XAyMjQWgOzLqzEdO3RQse2iYyR0TMmAwTKIICRKUNnRgkBZwQwMs4EoRwbAXY7Nl7S1hgZKV5LcNaFhZa2LVpo+dbRMTJ6xmSAQBkEMDJl6MwoIeCMAEbGmSCUYyPAbsfGS9oaIyPFawnOurDQ0rZFCy3fxU5khoStv998HRwcDI5+rF1sDD1aMkCgMAIYmcIEZ7gQ8EEg64lMyIC0zcuY2Rlq1+2DE/YxyZRVoLGSrjE2RsYITNecdaFja42MFlZi9vZZjUxTXp+wsSZkrF1sDDsmekAAAkECGJkgIhpAAALpCWBk0jMlYkYC7HYywg6lwsiECGX7nHWRDXUwEVoEEc1uUJSRaSbU3D+7J0tz49H/cFU/LoTDujlsBay2QqLjlgPzmXmgup7NvuvvYYCkRqb9DkzDqu+lXR4t7eFMWmhI7HYWAt+XlhMZN2KwLtxIccTY+6lo/ypJamRi8ZavYxsAACAASURBVGBkYknRDgIrIoCRWZFYlAqB/SGAkdkfLYscCTtPR7JjZNyIwbpwIwUnMhmkcGNk6rEO/Xh2308jDT264vfIZJg1pIAAj5aYAxCAgBMCixgZJ2OnjD0gwM7TkYicyLgRg3XhRgpOZDJIgZHJAJkUECiCAEamCJkZJAS8EcDIeFOEekwE2HmacGkbY2S0fA3RWRcGWOKmaCEGvA2/MzK/8zu/s3nkIx+pz0YGCEBgfwlgZPZXW0YGAccEMDKOxaG0MAF2O2FG2VpgZLKhDiViXYQI5fscLfSsMTJ6xmSAQBkEMDJl6MwoIeCMAEbGmSCUYyPAbsfGS9oaIyPFawnOurDQ0rZFCy3fOjpGRs+YDBAogwBGpgydGSUEnBHAyDgThHJsBNjt2HhJW2NkpHgtwVkXFlratmih5cuJjJ4vGSBQDgGMTDlaM1IIOCLAiYwjMSjFToDdjp2ZrAdGRobWGph1YSWma48WOrZNZIyMnjEZIFAGAYxMGTozSgg4I4CRcSYI5dgIsNux8ZK2xshI8VqCsy4stLRt0ULLt46OkdEzJgMEyiCAkSlDZ0YJAWcEMDLOBKEcGwF2OzZe0tYYGSleS3DWhYWWti1aaPlyIqPnSwYIlEMAI1OO1owUAo4IcCLjSAxKsRNgt2NnJuuBkZGhtQZmXViJ6dqjhY5tExkjo2dMBgiUQQAjU4bOjBICzghgZJwJQjk2Aux2bLykrTEyUryW4KwLCy1tW7TQ8q2jY2T0jMkAgTIIYGTK0JlRQsAZAYyMM0Eox0aA3Y6Nl7Q1RkaK1xKcdWGhpW2LFlq+nMjo+ZIBAuUQwMiUozUjhYAjApzIOBKDUuwE2O3Ymcl6YGRkaK2BWRdWYrr2aKFj20RexMj0CVt/r/t1cHDQS6Ddtttm7DM9TjJAoGACGJmCxWfoEFiOQFYjEzIgQ8aljadrgtp/H/tsOcRkVhJgt6Oka4yNkTEC0zVnXejYWiOjhZWYvX1WI9OUN3Qig5GxC0gPCLghgJFxIwWFQKAkAq6MTBv82GOl9mecyJQ0XW8+VnY7jvTHyLgRg3XhRooKLfRauDEy3aEOiT/n0VLTd+6f3ZOlufHof7iqzSkc1s1hK2C1FRIdtxyYz8wD1fVMbwvWlyGpkYl9YTfGoSqMzPrkoeIQgZi5FIrB54kIcCKTCOT8MKyL+QxTRUCLVCSH4yQ1MrHlxrwjg5GJpUk7CDghgJFxIgRlQKAsAhiZsvTeu9Gy23EkKUbGjRisCzdS8I5MBincGJl6rEM/nt33XkzDht8jk2GWkAICMQQwMjGUaAMBCCQmsIiRSTwGwhVMgJ2nI/ExMm7EYF24kYITmQxSYGQyQCYFBIoggJEpQmYGCQFvBDAy3hShHhMBdp4mXNrGGBktX0N01oUBlrgpWogBb8NjZPSMyQCBMghgZMrQmVFCwBkBjIwzQSjHRoDdjo2XtDVGRorXEpx1YaGlbYsWWr51dIyMnjEZIFAGAYxMGTozSgg4I4CRcSYI5dgIsNux8ZK2xshI8VqCsy4stLRt0ULLlxMZPV8yQKAcAhiZcrRmpBBwRIATGUdiUIqdALsdOzNZD4yMDK01MOvCSkzXHi10bJvIOyNz3nnnbc4991x9NjJAAAL7SwAjs7/aMjIIOCawMzKXXXbZ5iEPeYjjMikNAv0E2O04mhkYGTdisC7cSMFv9s0gxc7IvPWtb9086lGPypCOFBCAwN4SwMjsrbQMDAKeCWBkPKtDbUEC7DyDiPI1wMjkYx3IxLpwIwUnMhmkwMhkgEwKCBRBACNThMwMEgLeCGBkvClCPSYC7DxNuLSNMTJavoborAsDLHFTtBAD3obHyOgZkwECZRDAyJShM6OEgDMCGBlnglCOjQC7HRsvaWuMjBSvJTjrwkJL2xYttHzr6BgZPWMyQKAMAhiZMnRmlBBwRgAj40wQyrERYLdj4yVtjZGR4rUEZ11YaGnbooWWLycyer5kgEA5BDAy5WjNSCHgiAAnMo7EoBQ7AXY7dmayHhgZGVprYNaFlZiuPVro2DaRMTJ6xmSAQBkEMDJl6MwoIeCMAEbGmSCUYyPAbsfGS9oaIyPFawnOurDQ0rZFCy3fOnp2I1OL2nwdHBwcNcKxz9oNU8TQoyUDBAojgJEpTHCGCwEfBHZG5vnPf/7ml37pl+QVdZ1p++9jn3VNTNsATYkhHygJshFgt5MNdTgRRibMKFML1kUm0BFp0CIC0swmOyNz6aWXbh760IfODGXvPsWEpDBD9krpAQEIBAlgZIKIaAABCKQnkP3RUjOE0AnMkIvFyKSfBGuOyG7HkXoYGTdisC7cSMG/fp1BikWMTN8iCxmbGAMUitF8PvfPbi1z49H/cFU/LoTDujlsBay2QqLjlgPzmXmgup5l8AWrS5HUyLRfwm1I9L3Q2/1e3TZkQlIYmdWpQ8FBAuw8g4jyNeBEJh/rQCbWhRspOJHJIEVSIxOqd2xxYWRC9PgcAs4JYGScC0R5ENhPAhiZ/dS1mFGx83QkNUbGjRisCzdScCKTQYrsRqY7pu6PUvc9kuo7rRl7dDX0WQaepIBAuQQwMuVqz8ghsCCBrEZmwXGSek8JsPN0JCxGxo0YrAs3UnAik0EKjEwGyKSAQBEEMDJFyMwgIeCNAEbGmyLUYyLAztOES9sYI6Pla4jOujDAEjdFCzHgbXiMjJ4xGSBQBgGMTBk6M0oIOCOAkXEmCOXYCLDbsfGStsbISPFagrMuLLS0bdFCy7eOjpHRMyYDBMoggJEpQ2dGCQFnBHZG5qKLLtqceeaZzkqjHAiECbDbCTPK1gIjkw11KBHrIkQo3+dooWeNkdEzJgMEyiCAkSlDZ0YJAWcEMDLOBKEcGwF2OzZe0tYYGSleS3DWhYWWti1aaPnW0TEyesZkgEAZBDAyZejMKCHgjABGxpkglGMjwG7HxkvaGiMjxWsJzrqw0NK2RQstX05k9HzJAIFyCGBkytGakULAEQFOZByJQSl2Aux27MxkPTAyMrTWwKwLKzFde7TQsW0iY2T0jMkAgTIIYGTK0JlRQsAZAYyMM0Eox0aA3Y6Nl7Q1RkaK1xKcdWGhpW2LFlq+dXSMjJ4xGSBQBgGMTBk6M0oIOCOAkXEmCOXYCLDbsfGStsbISPFagrMuLLS0bdFCy5cTGT1fMkCgHAIYmXK0ZqQQcESAExlHYlCKnQC7HTszWQ+MjAytNTDrwkpM1x4tdGybyBgZPWMyQKAMAhiZMnRmlBBwRgAj40wQyrERYLdj4yVtjZGR4rUEZ11YaGnbooWWbx0dI6NnTAYIlEEAI1OGzowSAs4IYGScCUI5NgLsdmy8pK0xMlK8luCsCwstbVu00PLlREbPlwwQKIcARqYcrRkpBBwRyH4iU7vT5uvg4ODI/7e/3/d5m9lQjLrN2GeOuFNKIgLsdhKBTBEGI5OCYpIYrIskGJMEQYskGEeDZDUyXUHbf48V2xIjNqYeMxkgUAABjEwBIjNECPgjkNXIdIePkfE3IdZWEWbVkWIYGTdisC7cSLF7StB++uCnsv2pZDEj03ey0sY6JDwnMvsz+RjJnhHAyOyZoAwHAusgsIiRiXGoQ23mGJmm79w/G2nnxqH/jTuVORwaLebGof88HXYbj5uMzBw90WG+Dt33BNFj/nXG07xch7XIW2VSIxPzwm6MiakRKIxMXrRkg0BhBDiRKUxwhgsBHwSSGpnQkMZMzNhJSzvunBOZUH18vj4CscZ4fSNbYcUYGTeisS7cSME7MhmkwMhkgEwKCBRBACNThMwMEgLeCGQ3Ml0AQ79Lpvv9mHbNI6kmB2+Ke5tu6eth55me6eSIGJnJ6FJ3ZF2kJjo9HlpMZxfb8773vW916KKLLtqceeaZsX1oBwEIQODmBDAyzAoIQGABAhiZBaCTMh0BdjvpWM6OhJGZjTBVANZFKpLz46DFfIahCBiZECE+hwAE4ghgZOI40QoCEEhKACOTFCfBchNgt5Ob+Eg+jIwbMVgXbqTgp5YySIGRyQCZFBAoggBGpgiZGSQEvBHAyHhThHpMBNh5mnBpG2NktHwN0VkXBljipmghBrwNj5HRMyYDBMoggJEpQ2dGCQFnBDAyzgShHBsBdjs2XtLWGBkpXktw1oWFlrYtWmj51tExMnrGZIBAGQQwMmXozCgh4IwARsaZIJRjI8Bux8ZL2hojI8VrCc66sNDStkULLV9OZPR8yQCBcghgZMrRmpFCwBEBTmQciUEpdgLsduzMZD0wMjK01sCsCysxXXu00LFtImNk9IzJAIEyCGBkytCZUULAGQGMjDNBKMdGgN2OjZe0NUZGitcSnHVhoaVtixZavnV0jIyeMRkgUAYBjEwZOjNKCDgjgJFxJgjl2Aiw27HxkrbGyEjxWoKzLiy0tG3RQsuXExk9XzJAoBwCGJlytGakEHBEgBMZR2JQip0Aux07M1kPjIwMrTUw68JKTNceLXRsm8gYGT1jMkCgDAIYmTJ0ZpQQcEYAI+NMEMqxEWC3Y+MlbY2RkeK1BGddWGhp26KFlm8dHSOjZ0wGCJRBACNThs6MEgLOCGBknAlCOTYC7HZsvKStMTJSvJbgrAsLLW1btNDy5URGz5cMECiHAEamHK0ZKQQcEch+IlO70+br4ODgKBRjn7UbpojhSANKmUGA3c4MeKm7YmRSE50cj3UxGV3yjmiRHOnNAmY1Ml1B238f+6xrYtoGaEoMPVYyQKBAAhiZAkVnyBBYnkBWI9Md7hQTksIMLY+dClIRYLeTimSCOBiZBBDThGBdpOGYIgpapKA4HmMRI9M8Gho6WalLHhIfI6OfFGSAwCQCGJlJ2OgEAQjMI7CIkWlKzn0i0+Sb+2e3/rnx6H+4qk3tFA6NFlP7028a9z5uWwGrrZCTdESHtNxYF2l5epqf8275+9k7qZFpv4TbXkhD6HIbmf2UkFFBwAkBTmScCEEZECiLQFIjE0KX4rFQihihOvl8PQR4/uxIK4yMGzFYF26kGHxNwk+F668EI7N+DRkBBHwQwMj40IEqIFAYgaxGpmY75XfA9J3CDD26iv1dNIXpvLfDZefpSFqMjBsxWBdupOBEJoMU2Y1MhjGRAgIQWIIARmYJ6uSEQPEEMDLFT4F1A2Dn6Ug/jIwbMVgXbqTgRCaDFBiZDJBJAYEiCGBkipCZQULAGwGMjDdFqMdEgJ2nCZe2MUZGy9cQnXVhgCVuihZiwNvwGBk9YzJAoAwCGJkydGaUEHBGACPjTBDKsRFgt2PjJW2NkZHitQRnXVhoaduihZZvHR0jo2dMBgiUQQAjU4bOjBICzgjsjMxb3vKWzaMf/WhnpVEOBMIE2O2EGWVrgZHJhjqUiHURIpTvc7TQs8bI6BmTAQJlEMDIlKEzo4SAMwIYGWeCUI6NALsdGy9pa4yMFK8lOOvCQkvbFi20fOvoGBk9YzJAoAwCGJkydGaUEHBGACPjTBDKsRFgt2PjJW2NkZHitQRnXVhoaduihZYvJzJ6vmSAQDkEMDLlaM1IIeCIACcyjsSgFDsBdjt2ZrIeGBkZWmtg1oWVmK49WujYNpExMnrGZIBAGQQwMmXozCgh4IwARsaZIJRjI8Bux8ZL2hojI8VrCc66sNDStkULLd86OkZGz5gMECiDAEamDJ0ZJQScEcDIOBOEcmwE2O3YeElbY2SkeC3BWRcWWtq2aKHly4mMni8ZIFAOAYxMOVozUgg4IsCJjCMxKMVOgN2OnZmsB0ZGhtYamHVhJaZrjxY6tk1kjIyeMRkgUAYBjEwZOjNKCDgjsDMyb37zmzePecxjnJVGORAIE2C3E2aUrQVGJhvqUCLWRYhQvs/RQs8aI6NnTAYIlEEAI1OGzowSAs4IZDcytTttvg4ODo78f/v7fZ+3uQ3FqNuMfeaMPeUkIMBuJwHEVCEwMqlIzo7DupiNMFkAtEiGcjBQViPTFbT991ixLTFiY+oxkwECBRDAyBQgMkOEgD8CWY1Md/gYGX8TYm0VYVYdKYaRcSMG68KNFLunBO2nD34q259KFjEyzeOfsUdLQ8JzIrM/k4+R7BkBjMyeCcpwILAOAosYmQbNmFMd+myOkWn6zv2zW//cePS/cccyhUOjxdT+9JvGvY/bVsBqK+QkHdEhLTfWRVqenubnOqxF3iqTGhnLC7v1MHMbmbxoyQaBwghwIlOY4AwXAj4IJDUyoSHNOU0ZOsUZe8+GZ5MhRdb/ORo70hAj40YM1oUbKXhHJoMUGJkMkEkBgSIIYGSKkJlBQsAbgaxGpnmc1H5+2wYy9Dtg+k5yrDG8gaeeNATYeabhmCQKRiYJxhRBWBcpKKaJgRZpOI5FyW5k9EMiAwQgsAgBjMwi2EkKgdIJYGRKnwErHz+7HUcCYmTciMG6cCMF78hkkAIjkwEyKSBQBAGMTBEyM0gIeCOAkfGmCPWYCLDzNOHSNsbIaPkaorMuDLDETdFCDHgbHiOjZ0wGCJRBACNThs6MEgLOCGBknAlCOTYC7HZsvKStMTJSvJbgrAsLLW1btNDyraNjZPSMyQCBMghgZMrQmVFCwBkBjIwzQSjHRoDdjo2XtDVGRorXEpx1YaGlbYsWWr6cyOj5kgEC5RDAyJSjNSOFgCMCnMg4EoNS7ATY7diZyXpgZGRorYFZF1ZiuvZooWPbRMbI6BmTAQJlEMDIlKEzo4SAMwIYGWeCUI6NALsdGy9pa4yMFK8lOOvCQkvbFi20fOvoGBk9YzJAoAwCGJkydGaUEHBGACPjTBDKsRFgt2PjJW2NkZHitQRnXVhoaduihZYvJzJ6vmSAQDkEMDLlaM1IIeCIACcyjsSgFDsBdjt2ZrIeGBkZWmtg1oWVmK49WujYNpExMnrGZIBAGQQwMmXozCgh4IzAzsice+65m/POO89ZaZQDgTABdjthRtlaYGSyoQ4lYl2ECOX7HC30rHdG5m1ve9vm9NNP12cjAwQgsL8EMDL7qy0jg4BjAjxaciwOpYUJsNsJM8rWAiOTDXUoEesiRCjf52ihZ42R0TMmAwTKIICRKUNnRgkBZwQwMs4EoRwbAXY7Nl7S1hgZKV5LcNaFhZa2LVpo+dbRMTJ6xmSAQBkEMDJl6MwoIeCMAEbGmSCUYyPAbsfGS9oaIyPFawnOurDQ0rZFCy3fRU9k+sStv9d8HRwcDI5+rF1sDD1aMkCgMAIYmcIEZ7gQ8EFgkROZxmy0zUrX2Ay52LF2sTF8oKeKFATY7aSgmCgGRiYRyPlhWBfzGaaKgBapSA7Hyf4L8RpRQ6YDI6MXnwwQSEoAI5MUJ8EgAIE4Atl/IR5GJk4YWsURYLcTxylLK4xMFswxSVgXMZTytEELPeedkXnTm960eexjHyvP1hZ0iROZroma+vcG1NT+9Dtc1Y8V4bBfHLaCVlth0XXLgfnNPFBd3+Q36hUmSGpk2i/aNiya92CsxoVHSyucTQuUzG5nAehDKTmRcSMG68KNFEeMvZ+K9q+SpEZmDE+fyanbxxqd7ilI399DZmn/5GNEEHBEACPjSAxKgUA5BLIZmS7SkOngRKacSThnpOw859BL3Bcjkxjo9HCsi+nsUvdEi9REbx7PjZGpS2uf2oR+NLsZSvf3zQzF0KMkAwQKJ4CRKXwCMHwILENgMSOzzHDJum8E2O04UhQj40YM1oUbKXhHJoMUGJkMkEkBgSIIYGSKkJlBQsAbAYyMN0Wox0SAnacJl7YxRkbL1xCddWGAJW6KFmLA2/AYGT1jMkCgDAIYmTJ0ZpQQcEYAI+NMEMqxEWC3Y+MlbY2RkeK1BGddWGhp26KFlm8dHSOjZ0wGCJRBACNThs6MEgLOCGBknAlCOTYC7HZsvKStMTJSvJbgrAsLLW1btNDy5URGz5cMECiHAEamHK0ZKQQcEeBExpEYlGInwG7HzkzWAyMjQ2sNzLqwEtO1Rwsd2yYyRkbPmAwQKIMARqYMnRklBJwRwMg4E4RybATY7dh4SVtjZKR4LcFZFxZa2rZooeVbR8fI6BmTAQJlEMDIlKEzo4SAMwIYGWeCUI6NALsdGy9pa4yMFK8lOOvCQkvbFi20fDmR0fMlAwTKIYCRKUdrRgoBRwQ4kXEkBqXYCbDbsTOT9cDIyNBaA7MurMR07dFCx7aJjJHRMyYDBMoggJEpQ2dGCQFnBDAyzgShHBsBdjs2XtLWGBkpXktw1oWFlrYtWmj51tExMnrGZIBAGQQwMmXozCgh4IwARsaZIJRjI8Bux8ZL2hojI8VrCc66sNDStkULLV9OZPR8yQCBcghgZMrRmpFCwBEBTmQciUEpdgLsduzMZD0wMjK01sCsCysxXXu00LFtImNk9IzJAIEyCGBkytCZUULAGQGMjDNBKMdGgN2OjZe0NUZGitcSnHVhoaVtixZavnX0xYxMV9z6792vg4ODXgLttt02Y5/pcZIBAgUTwMgULD5Dh8ByBBYxMo3ZaJuQWNfaZ4CaOGOfLYeYzEoCsfNGWQOxbyKAkXEzFVgXbqSo0EKvRXYj04g61XRgZPSTggwQmEQAIzMJG50gAIF5BFwZmfZQxh4rDZ3kTDVH8xDSe0kC7HaWpN/JjZFxIwbrwo0UnMhkkCKrkWkvrtBCG/p8zolM9zRo6t8bXab2p9/hqjajcNgvDltBq62w6LrlwPxmHqiubxl8wepSJDUyYy/sWk9LFEZmdepQcJBAyBAHA9AgHQFOZNKxnBmJdTETYMLuaJEQ5kCopEZmrNw+k1O3t76oO+dERo+TDBAomABGpmDxGToEliOQzch0hxg6oeFEZrlJsabM7HYcqYWRcSMG68KNFLwjk0EKN0amHmv71GbsR7OH2o3FyMCSFBAomwBGpmz9GT0EFiKwmJFZaLyk3TMC7DwdCYqRcSMG68KNFJzIZJACI5MBMikgUAQBjEwRMjNICHgjgJHxpgj1mAiw8zTh0jbGyGj5GqKzLgywxE3RQgx4Gx4jo2dMBgiUQQAjU4bOjBICzghgZJwJQjk2Aux2bLykrTEyUryW4KwLCy1tW7TQ8q2jY2T0jMkAgTIIYGTK0JlRQsAZAYyMM0Eox0aA3Y6Nl7Q1RkaK1xKcdWGhpW2LFlq+nMjo+ZIBAuUQwMiUozUjhYAjApzIOBKDUuwE2O3Ymcl6YGRkaK2BWRdWYrr2aKFj20TGyOgZkwECZRDAyJShM6OEgDMCGBlnglCOjQC7HRsvaWuMjBSvJTjrwkJL2xYttHzr6BgZPWMyQKAMAhiZMnRmlBBwRgAj40wQyrERYLdj4yVtjZGR4rUEZ11YaGnbooWWLycyer5kgEA5BDAy5WjNSCHgiAAnMo7EoBQ7AXY7dmayHhgZGVprYNaFlZiuPVro2DaRMTJ6xmSAQBkEMDJl6MwoIeCMAEbGmSCUYyPAbsfGS9oaIyPFawnOurDQ0rZFCy3fOjpGRs+YDBAogwBGpgydGSUEnBHAyDgThHJsBNjt2HhJW2NkpHgtwVkXFlratmih5cuJjJ4vGSBQDgGMTDlaM1IIOCLAiYwjMSjFToDdjp2ZrAdGRobWGph1YSWma48WOrZNZIyMnjEZIFAGAYxMGTozSgg4I4CRcSYI5dgIsNux8ZK2xshI8VqCsy4stLRt0ULLt46e1cjUgna/Dg4Ojnyr/Xn7+90+Y+1iY+jRkgEChRHAyBQmOMOFgA8C2Y3MkEHputYhFzvWLjaGD/RUkYIAu50UFBPFwMgkApkgDFokgJgmBNeoNBzHomBk9IzJAIEyCHDz9KMzWvjRgkrkBLIbmfaIuo+Vxv7e9ONERj4nVpWA3Y4jubh5+hEDLdxowTVKL0VWI9MdTlvg2MdCc4xM03fun11TNTce/Q9XtYmFw7o5bAWstkKi45bD4vN5e5Gq30hcvA7mQ/L1oLcF68uQ1MiEXuZd2sisTx4qDhFgtxMilPFzTgEywg6kQgs3WnCN0kuR1MiEyp1zmsKjpRBdPofAwgS4eS4sQCs9WvjRgkrkBDAycsQkUBJgt6Oka4zNzdMITNgcLYRwbaG5Rtl4TWmd1cjUBU75HTB9JznNYLs/zs3vkZkyDegDgQQEuHkmgJgoBFokAkmYNRDIbmTWAIUa10OA3Y4jrbh5+hEDLdxowTVKLwVGRs+YDBAogwA3Tz86o4UfLahETmBnZM4999zNeeedJ09GAgikJsBuJzXRGfG4ec6Al7grWiQGOj0c16jp7GJ77ozMJZdcsjnjjDNi+9AOAhCAwM0JcPNMNyt6/l06c/DWv2Nn7ksHCKyIAI+WViQWpfbdO2/85WN8OSCQ4ubrYBguSpg7pzGVLmTcFYEWci0wMnLEJIBAIQS4YPsRGi3Qwg8BeSUYGTliEigJ8PxZSdcYm5unEZiwOVoI4RpDo4URmL05RsbOjB4QgEAfAS7YfuYFWqCFHwLySjAycsQkUBLgREZJ1xibm6cRmLA5WgjhGkOjhRGYvTlGxs6MHhCAACcyvucAN08/+qCFXAuMjBwxCZQEOJFR0jXG5oJtBCZsjhZCuMbQaGEEZm+OkbEzowcEIMCJjO85wM3Tjz5oIdcCIyNHTAIlAU5klHSNsblgG4EJm6OFEK4xNFoYgdmbY2TszOgBAQhwIuN7DnDz9KMPWsi1wMjIEZNASYATGSVdW2y0sPGStubmKcVrCo4WJlxTGmNkplCjDwQgAAHPBLh5+lEHLeRaYGTkiEmgJMApgJKuLTZa2HhJW3PzlOI1BUcLE64pjTEyU6jRBwIQgIBnAtw8/aiDFnItMDJyxCRQEuAUQEnXFhstbLykrbl5SvGagqOFCdeUxhiZKdToAwEIQMAzAW6eftRBC7kWGBk5YhIoCXAKoKRri40WNl7S1tw8pXhNwdHChGtKY4zMFGr0gQAEIOCZADdPP+qghVwLjIwcMQmUBDgFUNK1xUYLGy9pa26eUrym4GhhwjWlMUZmCjX6QAACftgq/QAAEfhJREFUEPBMgJunH3XQQq5FViNT79i6XwcHB7tvjX3W7dNu2/Rv2ox9JqdJguwEOAXIjnwwIVr40WJ7Qa2qm66tjqoqsxS0kOu+MzIXXnjh5nGPe5w82diFLvYi2G3X/vvYZ/LBkQACEICAFwLcPL0oUe/SMZViNTAyYsCE1xKINcDaKojenKp2T0ghsxABbp4Lge9JixZyLbIbmfaI2he97qOloQsiJzLyOUECCEBg7QS4efpREC3kWmQ1Mt3RTHnUNMfINH3n/tmMY24c+h/ePsY/2L0fNfXPRoup/ek3jz/8nPLbLoz6jUT0WV6f5tHSnOtcW0e5K1hhgqRGxvLCbugoesjkzDEyK9SHkiEAAQjYCXAKYGem6oEWKrJH4iY1MqFqU5iQFDFCdfL5egjwjowfrdDCjxa8YIoWjgjIS8HIyBGTAAIQgEBmApwCZAY+kg4t5FpkNTLN46RmVLG/A6bvFMYaQ06SBIsQ4BRgEey9SdHCjxacyKCFIwLyUrIbGfmISAABCECgdAKcAviZAWgh1wIjI0dMAiUBTgGUdG2x0cLGS9ra682z57e7Szl4Cc5vWZYqgZGR4iU4BCAAgQUIeDUMJd7QvZrKBaalKiVGRkWWuFkIcAqQBXNUErSIwpSnETfPPJxjsqBFDKVZbTAys/DRGQIQgIBDAtw8/YiCFnItdkbmwQ9+8Oad73ynPBkJIJCaAKcAqYlOj4cW09kl78nNMznSyQHRYjK62I47I3PyySdvPvCBD8T2oR0EIAABCHgmwM3TjzpoIdcCIyNHTAIlAU4BlHRtsdHCxkvampunFK8pOFqYcE1pjJGZQo0+EIAABDwT4ObpRx20kGuBkZEjJoGSAKcASrq22Ghh4yVtzc1TitcUHC1MuKY0xshMoUYfCEAAAp4JcPP0ow5ayLXAyMgRk0BJgFMAJV1bbLSw8ZK25uYpxWsKjhYmXFMaY2SmUKMPBCAAAc8EuHn6UQct5FpgZOSISaAkwCmAkq4tNlrYeElbc/OU4jUFRwsTrimNMTJTqNEHAhCAgGcC3Dz9qIMWci0wMnLEJFAS4BRASdcWGy1svKStuXlK8ZqCo4UJ15TGGJkp1OgDAQhAwDMBbp5+1EELuRYYGTliEigJcAqgpGuLjRY2XtLW3DyleE3B0cKEa0pjjMwUavSBAAQg4JkAN08/6qCFXIudkTnllFM2V155pTwZCSCQmgCnAKmJTo+HFtPZJe/JzTM50skB0WIyutiOGJlYUrSDAAQgsBYC3Dz9KIUWci0wMnLEJFAS4BRASdcWGy1svKStuXlK8ZqCo4UJ15TGGJkp1OgDAQhAwDMBbp5+1EELuRbZjUy9a2u+Dg4Ojhrg2GfthiliyMmSIAsBTgGyYI5KghZRmPI04uaZh3NMFrSIoTSrTVYj073Qtf8+9lnXxLQN0JQYs4jRGQIQgIB3Atw8/SiEFnItFjUysQYltl2sGZJTJUE2ApwCZEMdTIQWQUT5GnDzzMc6lAktQoRmf76IkWkeDQ2drNSjGroopjjVmU2NABCAAAQ8E+Dm6UcdtJBrkd3I1CNqDMyUx0JzjEzTd+6fjSpz49D/8G4uzOHQaDE3Dv3n6QA/Z/zqzeBN19o56wtd5+u6vcDVN71Z17m2DnJXsMIESY1M+yXc9g2me+Pv+3vsY6E5RmaF+lAyBCAAATsBTgHszFQ90EJF9kjcpEYmVG0KE5IiRqhOPl8PAd7L8KMVWvjRojkFcFRRuaVgZOTaY2TkiEkAAQhAIDMBbp6ZgY+kQwu5FlmNTD2aKb8Dpu8UpiEz9XfRyMmSIAsBTgGyYI5KghZRmPI04uaZh3NMFrSIoTSrTXYjM6taOkMAAhCAQJgAN88wo1wt0EJOGiMjR0wCJQFOAZR0bbHRwsZL2pqbpxSvKThamHBNaYyRmUKNPhCAAAQ8E+Dm6UcdtJBrgZGRIyaBkgCnAEq6tthoYeMlbc3NU4rXFBwtTLimNMbITKFGHwhAAAKeCXDz9KMOWsi1wMjIEZNASYBTACVdW2y0sPGStubmKcVrCo4WJlxTGmNkplCjDwQgAAHPBLh5+lEHLeRaYGTkiEmgJMApgJKuLTZa2HhJW3PzlOI1BUcLE64pjTEyU6jRBwIQgIBnAtw8/aiDFnItMDJyxCRQEuAUQEnXFhstbLykrbl5SvGagqOFCdeUxhiZKdToAwEIQMAzAW6eftRBC7kWGBk5YhIoCXAKoKRri40WNl7S1tw8pXhNwdHChGtKY4zMFGr0gQAEIOCZADdPP+qghVyLnZG5973vvXn/+98vT0YCCKQmwClAaqLT46HFdHbJe3LzTI50ckC0mIwutiNGJpYU7SAAAQishQA3Tz9KoYVcC4yMHDEJlAQ4BVDStcVGCxsvaWtunlK8puBoYcI1pTFGZgo1+kAAAhDwTICbpx910EKuBUZGjpgESgKcAijp2mKjhY2XtDU3TyleU3C0MOGa0hgjM4UafSAAAQh4JsDN0486aCHXAiMjR0wCJQFOAZR0bbHRwsZL2pqbpxSvKThamHBNaYyRmUKNPhCAAAQ8E+Dm6UcdtJBrgZGRIyaBkgCnAEq6tthoYeMlbc3NU4rXFBwtTLimNMbITKFGHwhAAAKeCXDz9KMOWsi1yG5k6l1b83VwcHDk/9vf7/u8TWIoRt1m7DM5TRJkJ8ApQHbkgwnRwo8W2wthVbWur44qK68UtJBrntXIdC907b/HXgQtMWJjyimTAAIQgEBOAtw8c9Iez4UWci0WNTLdU5b2Cc3QyDEy8jmxqgSYVT9yoYUfLTiRQQtHBOSlLGJkmsc/Y4+WhkwNRkY+J0gAAQisnQCnAH4URAu5FtmNTD2ixqSM7eCGPptjZJq+c/9sVJkbh/6Hd3NhDodGi7lx6D9PB/g547ddGPXbiOiyvC7N6dic61xbR7krWGGCpEYm9MLumAnpslMYmRXqQ8kQgAAE7AQ4BbAzU/VACxXZI3GTGplQtXNOU7qnIH1/txilUK18vg4CvJfhRye08KMF78ighSMC8lIwMnLEJIAABCCQmQCnAJmBk25JAlmNTD3QKb8Dpu+kpYHWfSmY3yOz5HTKn5tTgPzMhzKihR8tOJHxowXrQq9FdiOjHxIZIAABCBROgBOZwidAWcPHyJSl996Nlt2OH0nRwo8WnMj40YJ1odcCI6NnTAYIQAACeQlwIpOXN9kWJYCRWRQ/yecSYLczl2C6/miRjuXsSBiZ2QhTBWBdpCI5HAcjo2dMBghAAAJ5CWBk8vIm26IEMDKL4if5XALsduYSTNcfLdKxnB0JIzMbYaoArItUJDmR0ZMkAwQgAAEvBDAyXpSgjgwEOJHJAJkUOgLsdnRsrZHRwkpM2B4jI4RrC826sPGa0hojM4UafSAAAQh4JoCR8awOtSUmgJFJDJRweQmw28nLeywbWvjRgt8j40cL1oVeC4yMnjEZIAABCOQlwIlMXt5kW5QARmZR/CSfS4DdzlyC6fqjRTqWsyNhZGYjTBWAdZGK5HAcjIyeMRkgAAEI5CWAkcnLm2yLEsDILIqf5HMJsNuZSzBdf7RIx3J2JIzMbISpArAuUpHkREZPkgwQgAAEvBDAyHhRgjoyEOBEJgNkUugIsNvRsbVGRgsrMWF7jIwQri0068LGa0prjMwUavSBAAQg4JkARsazOtSWmABGJjFQwuUlwG4nL++xbGjhRwt+j4wfLVgXei0wMnrGZIAABCCQlwAnMnl5k21RAhiZRfGTfC4BdjtzCabrjxbpWM6OhJGZjTBVANZFKpLDcTAyesZkgAAEIJCXAEYmL2+yLUoAI7MofpLPJcBuZy7BdP3RIh3L2ZEwMrMRpgrAukhFkhMZPUkyQAACEPBCACPjRQnqyECAE5kMkEmhI8BuR8fWGhktrMR07dFCx9YaGS2sxOztsxqZWtDu18HBwZFvtT9vf7/bZ6xdbAw7KnpAAAIQgAAEIOCNQFYj02dIGsPSda1DLnasXWwMbyJQz3QC7Hams0vdEy1SE50eDy2ms0vdEy1SE715vMWMTMh0YGT04pMBAhCAAAQgsHYCGJm1K1h4/ex2/EwAtEALPwT8VMK60GuxiJHpEzZ0QtOgmPNoqek7989uLXPj0f9wVT9ihAMcmAesA64D49cBvS1YX4akRib0Mu+QGam/n8PIrE8eKg4RYLcTIpTvc7TIxzqUCS1ChPJ9jhZ61kmNTGy5S53IxNZHOwhAAAIQgAAE1kEgu5GZ8hJvG+WcR0vrkIQqLQTY7VhoaduihZavJTpaWGhp26KFlm8d3Y2RqYtpP5rq/n6Z2N83MxRDj5IMEIAABCAAAQjkJpDdyOQeIPn2mwC7HT/6ogVa+CHgpxLWhV4LjIyeMRkgAAEIQAACEBARwMiIwBI2DwF2O3k4x2RBixhKedqgRR7OMVnQIobSvDYYmXn86A0BCEAAAhCAwIIEMDILwif1fALsduYzTBUBLVKRnB8HLeYzTBUBLVKRHI6DkdEzJgMEIAABCEAAAiICGBkRWMLmIcBuJw/nmCxoEUMpTxu0yMM5JgtaxFCa1wYjM48fvSEAAQhAAAIQWJAARmZB+KSeT4DdznyGqSKgRSqS8+OgxXyGqSIsqUX7F8S2x9P+BbOpxhmK03CI/e3+3XhjHDEyIfp8DgEIQAACEFghgSVNVBtXu46pRqaON9QXI7PCyUnJXyPgZaGiyfBFBjb5CbAu8jMfyrikFqHcfack7VOc7slN81n9/VDsOUame5LU1IGR8TOvqQQCEIAABCAgJxAyG21j0nfiMXSS0u03NpBuDdYTmZj+nMjIpxIJIAABCEAAAvkJ9L0jE/oHmYc+jzEUfSPs6zdEou8EKOZ7GJn8c4uMEIAABCAAATmBmBOZrnHpFjX0WCcUu4kTa4CmtqvzYGTkU4kEEIAABCAAgfwEQmYj1jyEHjspHi1ZHkFhZPLPLTJCAAIQgAAE5ATmGpml3pEZq7vvM4yMfCqRAAIQgAAEIJCfgNXINCcvTaWxP7VkMR4xJy1DP7XUdzLEo6WBeTX242ftLjE/pla3X+KXD+VfMrqMocUYu/jQYp5GrIt5/FL2RouUNNPECl2n9u1+ERpv916Z4j44lJMTmc4cjn1mONYuNkaa5bO/USwX69Rv2u8v1Wkji53TrItpfC290MJCK0/b5lo1dLPex3WBkckztyZl4SIxCZu0U2jB7ONFQgo0QfCY4+HuMXDs2kpQXlEh0GJZuRv+Ux+vrHVdhK7LXVWs7S39OZHhRGbZq0BE9tACwMhEQEzYpLQLdkJ0SUOVeAqQFGCiYKUamUT4koTByGBkkkwkZRCMjJKuLTZa2HjlaM2JTA7K/Tna7DH4y+mAkcHILDf7IjNz84wEJW4W0qH7KKn797UeoYuxzg6PkZmNcFIAy3zm1HgS4uhOOyNzr3vda3PppZdWt7vd7aI77mvD2MnJxMw3A0I3ULTQaxHSoKkALfJrgZHRM+/L0Dza637W98Iv60Kn0T/+4z9WD3vYw6pDd73rXTevetWrqvvc5z66bCuJjJHxJ1ToJspFQq9ZSAOMjF6DGMbtKlgX+TTpO41Eizz8r7zyyuoZz3hGdejOd77z5lnPelb1xCc+MU9m51naTjv0D2w1Qxn6xUH15yl+ft45Mml5fTfRvos0Wuhk6Nt9jv0bLGih06K5afYxZl1ouY9FD22Ch+4rY3ouN5r1ZH79619fvfSlL60O3eEOd9jc6U53qi688MLqjne843pGQKUQgAAEIAABCBRJ4B/+4R+qs846q/rEJz5RHfrmb/7mzW1ve9vdc6aXvOQlRQJh0BCAAAQgAAEIrIfAs5/97Oqyyy6rrr322huNTF16fRpz2mmn7Z43cTKzHjGpFAIQgAAEIFAKgfok5tWvfnV1+eWXV5/5zGeqzWZTHfqWb/mW7Z/b/zl0qDruuOOq7aOm6vGPf3z1Pd/zPbv/+GmmUqYH44QABCAAAQj4I1D/dNLf/M3f7P6rX4O5+uqrq+uuu+5GE7P1LkdOZJrSb3nLW1a3vvWtq2OOOaY69thjq1vc4ha7xnxBYC4B5tFcgvSHwHoI1DcYviAwl0A9j7761a9W119/fXXDDTdUX/jCF6qvfOUrR8LWn/9/cp9mS56onOQAAAAASUVORK5CYII=;" vertex="1" parent="1">
          <mxGeometry x="30" y="20" width="512.64" height="540" as="geometry" />
        </mxCell>
        <mxCell id="Xg-LjAHzdJd03FzE3i4f-2" value="" style="shape=image;verticalLabelPosition=bottom;labelBackgroundColor=default;verticalAlign=top;aspect=fixed;imageAspect=0;image=data:image/png,iVBORw0KGgoAAAANSUhEUgAAAjIAAAJQCAYAAACU8I4IAAAgAElEQVR4Xu2dD+xtWVXfz3uamTGtOhAcZvgTM5ghzFQbhpbIwECUOk0zamzBYotlapBUBqMVIVHbmLQxao0FlSAjplILkaaoBFIgmY6CGVA0bbVpVKwUpkaZGYllpqGVGTS/13vue+f37u+8e87Z/9dae31uAm/e7+6z91qf79pnf/c+9/7eueuvv/7CsHtduLD/Y7jqqquGL/7iLx6uueaa/f++4Au+YP9zD689g5u/fnjN1w7Dh97y/uFjl5K+7vnfOnzzs7/00t/+6Mx7+x+O1zzjk8Nb3n/piiN9XOz3y/fN/89/+6XhF37j02eRHvRx89e/ZrjU9GzbhT6W2m/GPUWQkvN47bPuHO4+zemXh3d+9FJOSz/3UER7LHcPXzt8aLjnA39QPuPrbhte/tIbhwd++Z3DhLv8IPRog8B1w20vf+kw3Zr+6EP3DFPJXXfby4eXHt6z7vnAcLYanzXcefdzhkdO6+hSX4+OdTvs3vva4eLd6uLrsG8bbPqP8ty5c/0neSnDv/zLvxwee+yx4fHHHx8++9nPDp///Of370wMzo1GZjIx11577bD7+/DSb/1HwzNuumn/vyc+6UkysEZfpUWnix7v8qt2XPPxQhQ4FlNKPyFj0cYNga1Sp8TSS2GLbXrPeq6kPvRoYTmSz/zZnw2f/PjHh0/+z48P737nLwwPP/zw8Mgjj5ymdO7JT37yvtZGA/M1d9wxfNurXzPc8LSnyuZ8WP3Ss92qiZkU5E4iW8uMDoEjBKRva1uicNvYIsT7UgQe+tSnhp//mbcMH/7gB4cHH3xw/zRpb2TGk5i/843fOPzAD/2wjlMQr0Ym5e6xdkdM6U+qOhkXAo4IYGQciU2qVQj86A/+8+He971vfzJz7ulPf/qFZzzjGcNPvu3fDjc8Vfgk5jBdjY+Wat59UkwHJqbKBKFTCNQmUPNWUjP2lNtUzXjo2y+B8WTmta965fCJT3xiOHfLLbdcePX3vHZ42V13+SUinXnI3SHmzhfSn3TOjA8BxwRiprM2TNxetCniN553vePtwz0/8cbh3K233nrhh974E8PfvO02vzQkMw+5K8Tc9UL6y813iqfFWLmxcj0ElBKImdaaUmDaa1LDdyz/5aMfHX7wda8dzt12220Xfu4Xf0nu20m+ddh9730DQOzdbqu/ErwxMiUo0gcEFgnETvvWKFvcZlrnxHj2CIzfZvr2l33zcO6FL3zhhV+871fsZdBLxFt3hNg72lZ/vXAjDwh0TCB22mtBwe1HixJ+4vj7f/vrMDJq5C71NW/uJGokJRAIpBKwamTGfLkFparOdSkEgo3Mk6++KqX/02v+9PGLv4WPVwMCJe4iS3fREn03QMAQEOiBgFUzw22iTPX9s+/9nuHn3/rW4eTk5GiH58+fH77tO75j+JE3/mSZAQv18tV/7Zbhjff8zPCCF73oaI+/fv/9w+tec/fwm7/7e0VGjDYy468IfvfvPDD89gMPDI898ug+iPGfMbjxhhuGlz7/1uH6a685GtiSkfmH3/gNw7e84q7h777sZafXPe+Wm4fv/xf/8vRnf7Qb66tvftbw8GOPD+N7r/j2Vw3f+brXrQK4/pqrz7z/3t0vznnoTz41vPquV+z7ec+73jX85kc+MvyrN72pCEhVneTeRfhKtyo5CcYOAavGozTh3FtQ6Xis9veUv/JFw4f+838drn/qU46m8Jk/+9/DC/76Vw4P/r/PqUpxNCp3/+O7hnv+3duvMDNr76UmEWVkPvixB4Z3f+CD+7Gef/ONw23PuWV4ws7EjK9Hdgbndx54aLhhZ2RuvfnmYW5nlozM3FBMpuXb/sl3nJqMFNMxGpnRsCy9Dvscx/yWr79z+M3fn/5lpVScSq7LvYtgZJQISRgxBDARMbTqts29BdWNzk7v13/R1cP/ePhPhy/90msXgx7bPPy55bVOKttjhqWGiRnzCzYyn3nkz4db3vpTeyZv/qrnDk+49gnDS3YnMONpzHhKs/uPYfcfw+t/7t37Ni/eGZ3x9ZIXX/xK95KRmZuIyWD82q/cd2osvv+7v3t43u23nzm12RIHI7NF6Mj7ISsBd6gEsFxSk0BI2dYcn76vJMBtokxVWDYyI4FD4zL+femUJpdWsJH51d/+xPCt/+ldw3f+1acNb37dtw9veOcHhsc+9+jw0KOXj7RuuPaLhod2nubFz7l5+NjulOPG3T978PI7X7xqZMY3x8dF/+H9Hxi+/MYbh/FR0/f8wA8M//RVrzr92bH3v/r5L9hfNz6CGh8Xja8f/OEfOX3kdMzI/NZv/Prwkz/6o8O//4/vO320dPdrX7t/bDW9pj5G8/TzP/vW/Y+n06HJdH3N192xf2/txCdXmKzrQ+4iqXf/kL5TguczOdvU5oxqabEdiaoWqaWsKomOgqEsy4lp3cgcmpnxv489aipBK9jIXP25Px+e8FMXT2T+9U3PHcaPwoyPkm698Ybh0d1JzPhI6fon3DB8bPdvHjz66KO7968ZHnjo0f0jqOffcuNw7glPXIz38MRlMiDTz2597nPPPPaZjM5kZG78iq/YG5PDz9GMA80/IzOajmNGZvyMzPxU6Kff8IZ9rNPncMZY/t4/+Jbh+huesjc9P/P2d0SdDpUQKqqPrTtJzp1/q++oQC815lHWNrVjjGposR2JqhY5pawqEeFgPJTSaApCXpoe02BkQhSLeLQ0fmvpgd0/m/2GX3j/8NP/90+G1+3MzI0783Lz7hRlfI2m5dGHHxhefOvN+8/IzF9r31qaHieNZmF+YjI+Ujr8UO7cyEwnOeN4hyc3oScyx4zMOMaH7rvvTArjSc03vOQlNj5Ls3VXyrn7b/UdVndnW7FIb1M7ZFRDg+0IxFvklK148AYCcFpWqpWxbmSaPlq6/fbbL/zSr/zqqqCHX78eDc1Hf/v3d4+Vds+Rhsf2py/P2Z28jKZm/MzMsdfW169H4zGahac+/en7047DxziHn49pZWTGx1vjqc/hy9yHgkv9XppDCCXvdjxOCruJYmL2nDAyYeWS2qrk1E6NgevOErBsZFp+2Peb7/hbw7lYI5NSbFtGZjQoD+z+Bcv5Ccv/+uQnh9/62B/sPz8zvmoYmbHfwxOc8dHSR37tQ/tHVqaNTIpQW9ek3u1CV6HU/rfitvg+J1VnVAstIYtSa4iZqadBhbMxjF+//vX//rvD+BGKY6+HHnxw+Bs3fYX7r18HG5naEo/m4R0/92/OfAV6/GzK4beXahqZ6XHS9GHf+eOl0UyNr66+pp0iasrdLmYFSuk/JQ/t12BirlAopoy0y2stPqaljGIWfyHehQsXhtu+6iuHN7zlntVfiPe9d796+K3f+/0iYNUYmSLZ0Ek9Ajl3spAVKKf/elnL9czjJIyMXPUdHZkpqkwQxeGMZubcuZAbf5kkMDJlOPbdS+odLLSOU/vvlTomBhOjsLaZpgpFIaQ9AYwMhbBOIPTuFWpa5qOF9h+r0xRPrf5j4wlp7/xx0pJkqaUVgpw24QQsTaXwrGjZA4GmRiZ0IrS6cWmLR2VB1YYU2n8sHGtGhm9w8a2k2BpX0r7WFFaSHmEYIKDSyIzcWpiZmAnYIh619bIFKgfOVt8pUCw+msHINJnzKeXENdsEakzj7VFpAYGLBE6NzC/ufo9MznoUAjS22L3FE8JQrM2SeLkixRbFFoB5PKX73xo/5f01hhbiT8l5dk1uGRUIgS4yCDgp0wxCXFqTAEYmgi432whYoU1T74ChYqT2vxV/iUdXITnUin8rv4bvh2CYh+MAS5ICKSyTBppdhB4lKNJHKoEqRqZUUZealNriGcUaYyqVX6r4Kq5LFScUXmr/W3ByjUxI/LVi38qt0vshKYcM3RmWkJRF2sTohSYiEjHoJQLFjUzJgo6ZSEuKao+nRI4mqzlHmBhoOeMsgS3xGRyHj5NiZFur6RqSmpxDlYOO0QtNKotB96sEMDIRBRIzsWOMVYl+I9KQb5pz14uFlTPWMVIlPoODiUmqwdJSJgXh6KKYqYY2jgpDYapFjUzpYo6ZSMfYWoonN1eFtXU8pFBRSgEJHW8L4FI8Mf2H5BTT31bMSt4PSXsr1A6xbKWs4v0Q7dBGhVSugzg1Mvfff79rECQPAQhAAAIQgIA9Ai960Ysu/uvXGBl74hExBCAAAQhAwDsBjIz3CiB/CEAAAhCAgGECGBnD4hE6BCAAAQhAwDsBjIz3CiB/CEAAAhCAgGECGBnD4hE6BCAAAQhAwDsBjIz3CiB/CEAAAhCAgGECGBnD4hE6BCAAAQhAwDsBjIz3CiB/CEAAAhCAgGECGBnD4hE6BCAAAQhAwDsBjIz3CiB/CEAAAhCAgGECGBnD4hE6BCAAAQhAwDsBjIz3CiB/CMwInD9/fv+Tk5OTo2ym9w/fXGrbAu5WvC1iYAwIQECOAEZGjj0jQ0AlgSVjcMzAzBOQMDQYGZVlRFAQaEYAI9MMNQNBwAaBY8bg0MQcMytb79fMHCNTky59Q0A/AYyMfo2IEAJNCawZmbUTFylDITVuU1EYDAIQWCSAkaE4IOCIwPzx0GhM5kZg6e8jphgjc9jPWp8T/sO+j117rN34s9R4HclOqhDomsDeyNxxxx0X7r333q4TJTkIeCew9RmXyUhsGZtQjktGZv4Y6thjqdBY50ZG2weRQ1nRDgIQSCewNzJ33nnnhfe9733pvXAlBCCgnsDWh3hrGZn5SU7Io6ulz9zEfH6HR07qS5IAIVCEAEamCEY6gYBuAmuL+tYJTMi1h9kvGaIlQmsnMmsfLN4aByOjuyaJDgKlCGBkSpGkHwgoJhBiRlJOZNYe5YSMOUe2ZU7mj5KO/X3qEyOjuCAJDQIFCWBkLsFcOsouyJquICBGIMRUbBmZ+SOieTJbJztzg3HYX+i1GBmxEmJgCKglgJHZSTPeROffmJD4xV5qq4TAzBPIMTJrpx6HYELNSMxnZHi0ZL70SAAC1QlgZI4gnhub6iowAAQaEAj9oGxou2MmZu2UZX4is/R160PjND8FCjFBa+M0wMwQEIBAYwIYmQPgPFNvXH0M15RA6Feat77dtBX01udc5o9x1z7suzTWmgnCyGwpxPsQ6ItAcSOzdJpR8pRjbYxJnpxHQyVj7atcyMY6gbmZCfmFePOclz7gG/po6diJy9q1x2I+dho0n/NsTKxXK/FDIIyAKSOz9oHctc+5rH2z4hgmjExY8dCqDwIaF3yNMfWhNllAoD8CxY3MtNsK/fDsMdOwZSRCrtnqY76jC423vxIgIy8EYj5fIs0EIyOtAONDwA4BcSMzNz4hBgQjY6fAiFQPgbXPyOQ8iq2RIUamBlX6hECfBKoYmUNzEmJMpvbjnyE31NJG5nD80Bj6LAey8kBg7RGtlvwxMlqUIA4I6CdQzcjMT1q2UMTcuGoYma34eB8CEIAABCAAAX0EVBiZQ2MScoKDkdFXSEQEAQhAAAIQkCAgbmRCTMkcTMg1IYZIAjhjQgACEIAABCBQjkA3RmZ6lDWhCfmsTTmM9AQBCEAAAhCAgASBqkZGIiHGhAAEIAABCEDADwGMjB+tyRQCEIAABCDQHQGMTHeSkhAEIAABCEDADwGMjB+tyRQCEIAABCDQHQGMTHeSkhAEIAABCEDADwGMjB+tyRQCEIAABCDQHYG9kbnjjjsu3Hvvvd0lR0IQgAAEIAABCPRNYG9kbr/99gv3339/35mSHQQgAAEIQAAC3RHAyHQnKQlBAAIQgAAE/BDAyPjRmkwhAAEIQAAC3RHAyHQnKQlBAAIQgAAE/BDAyPjRmkwhAAEIQAAC3RHAyHQnKQlBAAIQgAAE/BDAyPjRmkwhAAEIQAAC3RHAyHQnKQlBAAIQgAAE/BDAyPjRmkwhAAEIQAACFwmcP2+fxMnJPgeMjH0pySCRwPndRD65NBESu+AyYQJoKCxAgeHRsABE511gZJwXAOlDAAIQgIBPAqOJHF/jhu7QUC79dylKoeY1tB1GppQy9GOOQOgkMZeYo4DR0L7YaCij4Rp3jIyMJowKAQhAAAIQgEAAgekkZjqNGf88Zl6W2k1DHD6an65fMkhLpz/T2PM+j429lBonMgGi06RPAuwE7euKhmhon4BMBvO5E/JoaeuaQ2N0mNW87yUDtWSotghhZLYI8T4EIAABCECgMwJbpmQ6bVl7zBT6CGptrDnW0D4Pr8PIdFacpBNOgN18OCutLdFQqzLhcaFhOKuSLVONzDyGY4ZnzZzMT12mvx9eE9InRqZkNdAXBCAAAQhAwBiBVCOz9CsrQj88PDcyoXGs4eVExljxEW45AuwEy7GU6gkNpciXGxcNy7GM6SnUQJR+tHT4od+l0xlOZGKUpC0EIAABCEDAIYEYIzPiOTQXE65j31qa3jvW/9TP0nvz9+emZ0kmTmQcFjApXyTATtB+JaAhGtonQAa5BDAyuQS5HgIQgAAEIAABMQIYGTH0DCxNgN28tAL546NhPkPpHtBQWgH742Nk7GtIBhCAAAQgAAG3BDAybqUncXaC9msADdHQPgEyyCWAkcklyPUQgAAEIAABCIgRwMiIoWdgaQLs5qUVyB8fDfMZSveAhtIK2B8fI2NfQzKAAAQgAAEIuCVQzcgcc9nTL7cZac9/zfHae4fqlOjDrdokfoYAO0H7BYGGaGifABnkEqhiZI79Nr7Q3yI4JrR0cyrRRy4wrocABCAAAQhAQA+B4kZmMhtrpmNuVrbaTrgwMnoKp4dI2M3bVxEN0dA+ATLIJYCRySXI9RCAAAQgAAEIiBEoamRC/5VMqROZ+WkRfz+//6wSHOBQsw52Bba/wY3/X3qc6c5Zul/6477Q231RzGU0GLiYkdl6PFTisVCJPhowZQgIQOCQwCUjs3MxcIEABCBQnEBRI3MsusN/+nvpn/zeMkFTvxiZ4vq77pDPVzSSv6KRQcNGGlYcBg0rwnXSdTEjM+e1ZU5iHkNhZJxUI2n2SaCikekTGFlBAAIxBJoZmTGolN8Bc8wQTQmm/i6aGEC07ZcAO8FG2lY0MmjYSMOKw6BhRbhOuq5mZJzwI00IQGCNwGhips/GHP431CAAAQgUIoCRKQSSbuwRYCfYQLPKRgYNG2hYeQg0rAzYQfcYGQcikyIExAhUNjJieTEwBCCghgBGRo0UBNKaADvBBsQrGxk0bKBh5SHQsDJgB91jZByITIoQECNQ2ciI5cXAEICAGgIYGTVSEEhrAuwEKxM/9uHewh/4RcPKGjboHg0bQO58CIxM5wKTHgTECDQwMmK5MTAEIKCGAEZGjRQE0poAO8HKxBsYGTSsrGGD7tGwAeTOh8DIdC4w6UFAjEADIyOWGwNDAAJqCGBk1EhBIK0JsBOsSHztszAFPyeDhhU1bNQ1GjYC3fEwGJmOxSU1CIgRaGRkxPJjYAhAQA0BjIwaKQikNQF2ghWJNzIyaFhRw0Zdo2Ej0B0Pg5HpWFxSg4AYgUZGRiw/BoYABNQQwMiokYJAWhNgJ1iReCMjg4YVNWzUNRo2At3xMBiZjsUlNQiIEAj5MG9IG5HgGRQCELBGACNjTTHiLUaAnWAxlGc7CjEpIW0CwkPDAEjKm6ChcoEMhIeRMSASIULAFIEQkxLSxlTSBAsBCEgRwMhIkWdccQLsBCtJEGJSQtoEhIeGAZCUN0FD5QIZCA8jY0AkQoSAGQIxBiWmrRkABAoBCLQmgJFpTZzx1BBgJ1hBihhzEtN2IVQ0rKBh4y7RsDHwDofDyHQoKilBQIxAjDmJaSuWEANDAALaCWBktCtEfNUIsBOsgDbGnMS05USmglg6umQe6tDBchQYGcvqETsEtBGIMScxbbXlSTwQgIAaAhgZNVIQSGsC7AQLE08xJinXHISNhoU1FOgODQWgdzYkRqYzQUkHAmIEUkxJyjViCTIwBCCgkQBGRqMqxNSEADvBwphTTEnKNZzIFBZOtjvmoSz/HkbHyPSgIjlAQAOBFFOSco2GXIkBAhBQQwAjo0YKAmlNgJ1gYeIppiTlGk5kCgsn2x3zUJZ/D6NjZHpQkRwgIE0gx5DkXCudN+NDAALiBDAy4hIQgBQBdoIFyeeYkYxr0bCghkJdoaEQ+I6Gxch0JCapQECMQIYZGXKuFUuYgSEAAS0EMDJalCCO5gTYCRZEnmNGMq5Fw4IaCnWFhkLgOxoWI9ORmKQCARECGUbkNN4SfYgkz6AQgIA0AYyMtAKML0aAnWAh9CVMSGIfaFhIQ8Fu0FAQfidDY2Q6EZI0ICBGINGEnIm3RB9iABgYAhCQJICRkaTP2KIE2AkWwl/ChCT2gYaFNBTsBg0F4XcyNEamEyFJAwJiBBJNCCcyYooxMAS6IoCR6UpOkokhwE4whtZC2xImZuo6oS80LKChcBdoKCxAB8NjZDoQkRQgIEYgwXwsxlqyLzEgDAwBCLQmgJFpTZzx1BBgJ1hAipLmI6EvNCygoXAXaCgsQAfDY2Q6EJEUICBGIMF8cCIjphYDQ6BLAsWNzOiup9fJycnpfx/+fOv9w+vm1Jf6H9utvdeleiSVRYCdYBa+ccINw8Ecz+zt4uWRfaJhEeqinaChKP4uBi9qZOYFefj3tWJdu+6Qckz/TI4u6pMkNBOINB1BqdToM2hgGkEAAlYJFDUyx05PptMVjIzVEuk3bsxuprY1TEdkn2iYqaGCy9FQgQjGQ6hiZKZHPGuPlubvrf19YsyJjPFqI/y+CESajqDka/QZNDCNIAABqwSqGJkl47H0mKjVo6VpHP48v/tow8n+M0X8CYfUOpg+z5J6/dHrdjeJ8VN2oXU53VNC29OOei9ar4buo1ZNSkjcroxMCBDaQAACAQRqnpzU7DsgNZpAAAK2CBQ1MqmPflqdyNiShmhrE+DZfAbhmmYjom80zNBQyaVoqEQIw2FgZAyLR+gQECMQYTaiY6zZd3QwXAABCGgnUNTIjMmm/p6XpeuOndZMUOe/b4bfI6O93HTFx04wQ4+aZiOibzTM0FDJpWioRAjDYRQ3MoZZEDoEIBBKIMJshHZ52q5m39HBcAEEIKCdAEZGu0LEV40AO8FEtC2MRuAYaJiooaLL0FCRGEZDwcgYFY6wISBGINBkZMXXYoysALkYAhDQQgAjo0UJ4mhOgJ1gIvIWJiNwDDRM1FDRZWioSAyjoWBkjApH2BAQIxBoMrLiazFGVoBcDAEIaCGAkdGiBHE0J8BOMAF5S4MRMBYaJmio7BI0VCaIwXAwMgZFI2QIiBEIMBfFYms5VrGg6QgCEGhNACPTmjjjqSHATjBBipbmImAsNEzQUNklaKhMEIPhYGQMikbIEBAjEGAuisXWcqxiQdMRBCDQmgBGpjVxxlNDgJ1gghQtzUXAWGiYoKGyS9BQmSAGw8HIGBSNkCEgQiDAWBSPS2LM4knQIQQgUJMARqYmXfpWTYCdYKQ8EqZiY0w0jNRQYXM0VCiKsZAwMsYEI1wIiBFQaGTEWDAwBCCghgBGRo0UBNKaADvBSOIKjQwaRmqosDkaKhTFWEgYGWOCES4ExAgoNDJiLBgYAhBQQwAjo0YKAmlNgJ1gBHEJEzOFtzI2GkZoqLQpGioVxlBYGBlDYhEqBMQIKDUyYjwYGAIQUEMAI6NGCgJpTYCdYARxpUYGDSM0VNoUDZUKYygsjIwhsQgVAmIElBoZMR4MDAEIqCGAkVEjBYG0JsBOMJC4pImZQlyIAQ0DNVTcDA0Vi2MkNIyMEaEIEwJiBBQbGTEmDAwBCKghgJFRIwWBtCbATjCQuGIjg4aBGipuhoaKxTESGkbGiFCECQExAoqNjBgTBoYABNQQwMiokYJAWhNgJxhIXLGRQcNADRU3Q0PF4hgJDSNjRCjChIAIAQ0mZkpcUywiYjAoBCBwjABGhrpwS4CdYID0mszDkVjQMEBD5U3QULlABsLDyBgQiRAhIEZAuZER48LAEICAGgIYGTVSEEhrAuwEA4grNzJoGKCh8iZoqFwgA+FhZAyIRIgQECGgycRMADTGJCIOg0IAAhMBjAy14JYAO8EN6TWahllMaGh/+qKhfQ2lM8DISCvA+BDQSsCAkdGKjrggAIF2BDAy7VgzkjIC7AQ5kVFWki7DYR66lL1o0hiZojjpDAIdEeBEpiMxSQUC/RLAyPSrLZltHjicH05OTuB0jIBGEzPFeRAbu3n75YuG9jWUzgAjI60A40NAIwEjRkYjOmKCAATaEsDItOXNaIoIsBNcEcOIkUFDRRMqMRQ0TATHZacEMDIUAwQgcCUBI0YG6SAAAQhgZKgBtwTYCXIi47b4FSXOPFQkhtFQMDJGhSNsCFQjoPk0ZkraQozVBKJjCEDgkABGhnpwS4Cd4IL0FkzCpRjR0P70RUP7GkpnUNzIjEU5veZfbU197xBSiT6koTM+BFQTMGRkVHMkOAhAoAmBokZm7qwP/5763tzEHJqj0P6bkGQQcwTYCXIiY65oOwyYedihqI1TKmpk5rGHGo01k4ORaVwRDOebgIXTmEkhS7H6riqyh0BVAlWMzPT4Z+n0ZMwo1ORgZKrq77pzdoJH5LdkDnaxjg+y+e3Mtqcx89C2fhqir2JkLm+YLv8KeA2PlqYY+POiLnCAwxV1MG4yLpkD7fWxK+DRxVDHOw7MZ+pga75qMBy1YnBlZGpBpF+bBNgJciJjs3L7ipp52JeeEtkUNTKppy58RkZCesaEgH0jM57I8IIABHwTwMj41t919uwEZ/Jb+nzM5efX+8dLvOwSYB7a1U5L5EWNzJhU6u95Wbru2GnNBC/m99RoAU4cEFBLACOjVhoCgwAElgkUNzLAhoAVAuwEOZGxUqs9x8k87FndNrlhZNpwZhQI6CfAiYx+jYgQAhC4ggBGhqJwS4CdICcybotfUeLMQ0ViGA0FI2NUOMKGQHECnMgUR0qHEIBAfQIYmfqMGUEpAXaCB8JYNDG78Pcaju6I5OoAACAASURBVGnwzSWls2w7LObhNiNarBPAyFAhEIDA6AjsmgHLsVN7EIBANgGMTDZCOrBKgJ0gJzJWa7enuJmHPakpkwtGRoY7o0JAFwHLpxqWY9dVBUQDAZMEMDImZSPoEgTYCXIiU6KO6COPAPMwjx9XDwNGhiqAAAT4jAw1AAEImCWAkTErHYHnEmAnyIlMbg1xfT4B5mE+Q+89YGS8VwD5Q2AkYPlzJpZjp/ogAIFsAhiZbIR0YJUAO0FOZKzWbk9xMw97UlMmF4yMDHdGhYAeAj2caPSQg56KIBIImCKAkTElF8GWJMBO8BJNwybgVEPDOZSsaYt9MQ8tqqYrZoyMLj2IBgLtCfRgAnrIob3yjAiBLghgZLqQkSRSCLAT5EQmpW64piwB5mFZnh57w8h4VJ2cIXBIoIfTjB5yoCohAIEkAhiZJGxc1AMBdoKcyPRQx9ZzYB5aV1A+foyMvAZEAAFZAj2cZvSQg2wVMDoEzBLAyJiVjsBzCbAT5EQmt4a4Pp8A8zCfofceMDLeK4D8IdDDaUYPOVCJEIBAEgGMTBI2LuqBADtBTmR6qGPrOTAPrSsoHz9GRl4DIoCAHIGeTjJ6ykWuIhgZAuYIYGTMSUbApQiwE9yRNL74n9HQeC6l6tpaP8xDa4rpixcjo08TIoJAOwI9Lf495dKuAhgJAuYJYGTMS0gCqQTYCXIik1o7XFeOAPOwHEuvPWFkvCpP3hAYCfR0itFTLlQnBCAQTAAjE4yKhr0RYCdo38jwGRn7s5J5aF9D6QwwMtIKMD4EJAn0dIrRUy6SNcHYEDBGACNjTDDCLUeAnSAnMuWqiZ5SCTAPU8lx3UQAI0MtQMAzgZ5OMXrKxXNNkjsEIglgZCKB0bwfAu53gh0s/Fdo2EFO/cywsEzcz8MwTLRaIYCRoTwg4JVAj4t+jzl5rU/yhkAgAYxMICia9UfA/U6wg0WfExn789L9PLQvoXgGGBlxCQgAAkIEOjAyV5DrMSeh8mBYCFghgJGxohRxFifgfifYwaLPiUzxadG8Q/fzsDnx/gbEyPSnKRlBIIxAB0aGE5kwqWkFgZ4JYGR6VpfcVgm43wl2YGQ4kbE/yd3PQ/sSimeAkRGXgAAgIESgAyPDiYxQ7TAsBBQRwMgoEoNQ2hJwvxPswMhwItN2ztQYzf08rAHVWZ/FjcxYlNPr5OTk9L8Pf771/uF1cz2W+h/brb3nTFfShcA6gQ5MzGKCPedGXUMAAlcQKGpk5s768O9rrnvtusOIY/rH5VPtWwRc10gni/1RDTvJbat+e3nf9TzsRUThPIoamWOnJ9PpCkZGWGmGh8DZXcEwHJyYdgUHI9OVnCQDgS0C1YzMsdOTw2Dmj53W/j5dx4nMlpy8H0PA9U6wk8WeE5mYitfZ1vU81CmJuaiqGJmQwlx77LR0fa6Rma7nz/O7zfjJ/jNF/OmUw+5WNX6arUf9d4W9P22ivpnfPdZ3al2bcycRARc3MiEmZoxPwshEcKGpAwKhtdolCk5kupTVYlKu56FFwRTGXNTIpH4Ohg/7KqwMQuqbQCdG5qhIPefWd1WSHQSSCGBkkrBxUQ8EXO8EO1ns+YyM/Znoeh7al09FBsWNzDyrpd8lM/9dMWMxT6+tDwIfazc9rlp6TwVtgoCAFgKdGBlOZLQUFHFAQI5AUSMjlwYjQyCegNudYEcmZlHDjnKMr2xbV7idh7ZkUh0tRka1PAQHgQoEPCzyHnKsUBp0CQGLBDAyFlUj5iIE3O4EO1rkOZEpMhVEO3E7D0Wp9zU4RqYvPckGAtsEOjIyi8l6yHFbaVpAwAUBjIwLmUnyGAG3O8GOFnlOZOzPbbfz0L50ajLAyKiRgkAg0IhAR0aGE5lGNcMwEFBMACOjWBxCq0vA7U6wIyPDiUzdOdKid7fzsAVcJ2NgZJwITZoQOCXQkZHhRIa6hgAEMDLUgFsCbneCHRkZTmTsT1+389C+dGoywMiokYJAINCIQEdGhhOZRjXDMBBQTAAjo1gcQqtLwOVOsDMTs6phZ7nWnQ1yvbuch3K4uxwZI9OlrCQFgQUCnhZ3T7lS8BBwTGBvZF7wghdc+PCHP+wYA6l7JOByJ9jZ4s6JjP2Z63Ie2pdNVQYvfOELMTKqFCEYCNQk0JmRWUXlKdeaNUPfEFBOACOjXCDCq0fA5U6ws8WdE5l686NVzy7nYSu4TsbByDgRmjQhsCfQmZHhRIa6hgAEMDLUgFsCLneCnRkZTmTsT1+X89C+bKoywMiokoNgIFCZQGdGhhOZyvVC9xAwQAAjY0AkQqxDwOVOsDMjw4lMnbnRsleX87AlYAdjYWQciEyKEHD3+ZhJ8s6MG5UMAQhcSQAjQ1W4JeBuJ9jhor6pYYc59zZhNzXsLWHyKU4AI1McKR1CQCkBj4u6x5yVlh9hQaAWAYxMLbL0q56Au51gh4v6poYd5qx+YkUGuKlhZH8090cAI+NPczL2SsDjou4xZ6/1Td5uCWBk3EpP4u52gh0u6psadphzbzN3U8PeEiaf4gQwMsWR0iEElBLwuKh7zFlp+REWBGoRwMjUIku/6gm42wl2uKhvathhzuonVmSAmxpG9kdzfwQwMv40J2OvBDwu6h5z9lrf5O2WAEbGrfQk7mon2OmCHqRhp7n3MoODNOwlWfKoQgAjUwUrnUJAGQHPi7nn3JWVIeFAoAYBjEwNqvRpgoCrnWCni3mQhp3mbmKSBQQZpGFAPzTxSwAj41d7MvdEwPNi7jl3TzVOrm4JYGTcSk/irnaCnS7mQRp2mnsvMzhIw16SJY8qBDAyVbDSKQSUEfC8mHvOXVkZEg4EahDAyNSgSp8mCLjaCXa6mAdp2GnuJiZZQJBBGgb0QxO/BDAyfrUnc08EPC/mnnP3VOPk6pYARsat9CTuaifY6WIepGGnufcyg4M07CVZ8qhCACNTBSudQkAZAc+LuefclZUh4UCgBgGMTA2q9GmCgJudYMcLebCGHTMwMdlWggzW0HqixF+NAEamGlo6hoASAiziwwADJcVIGBAoTwAjU54pPRoh4GYn2PEiHqxhxwyMTLfFMIM1tJ4o8VcjUNzIjEU5vU5OTs4EnvreYScl+qhGk44hoJEAizgnMhrrkpggUIhAUSMzd9aHf099b25iDs1RaP+FWNFNZwTc7AQ7NjLBGnbMwPq0DNbQeqLEX41AUSMzjzLUaKyZHIxMNe3p2AsBFnFOZLzUOnm6JFDNyGyZk1CTg5FxWZdNknazE+zYyARr2DGDJpOl4iDBGlaMga5tE6hiZI4VpoZHS1MM/Hl+GB/RwcEHh+kbO6713t2nx0/vUffMe6/zwLZVWY++uJFZctcajEzPQpJbPAE3O8GOTyOCNeyYQXzl67oiWENdYRONIgJFjcxaQWJkFKlOKH4IsIBf1hoWfuqeTF0RwMi4kptk1z5z1SWdzhfvqN185yys1m+UhlaTJO6qBIobmXm0869LT++H/o6ZYyc5sX1UJUjnENBMgMWbExnN9UlsEChAoKiRKRAPXUCgGQEXO8HOjUyUhp2zaDZxCg8UpWHhsemuDwIYmT50JAsIHCfA4s2JDHMDAp0TwMh0LjDpLRNwsRPs3MhEadg5C6tzPUpDq0kSd1UCGJmqeOkcAsIEWLw5kREuQYaHQG0CGJnahOlfLQEXO8HOjUyUhp2zUDvRNgKL0tBqksRdlQBGpipeOoeAMAEWb05khEuQ4SFQmwBGpjZh+ldLoPudoAMTE62hAyZqJ9xCYNEaWkuQeKsTwMhUR8wAEBAiwKJ9JXiYCBUjw0KgHgGMTD229KycQPc7QQeLdrSGDpgon3ZXhBetobUEibc6AYxMdcQMAAEhAizanMgIlR7DQqAlAYxMS9qMpYpA9ztBB0YmWkMHTFRNsoBgojUM6JMmvghgZHzpTbaeCLBocyLjqd7J1S0BjIxb6Um8+52gAyMTraEDJtZmdrSG1hIk3uoEMDLVETMABIQIsGhzIiNUegwLgZYEMDItaTOWKgLd7wQdGJloDR0wUTXJAoKJ1jCgT5r4IoCR8aU32XohwIK9rDRsvMwC8nRCACPjRGjSPPaU4fxwcnLSJxoni3XSbt4JGyuFnaShleSIswkBjEwTzAwCgcYEWKw5kWlccgwHASkCGBkp8owrTqDrnaATI5OkoRM24hMsMIAkDQP7ppkPAhgZHzqTpTcCLNacyHirefJ1SwAj41Z6Eu96J+jEyCRp6ISNlRmepKGV5IizCQGMTBPMDAKBxgRYrDmRaVxyDAcBKQIYGSnyjCtOoOudoBMjk6ShEzbiEywwgCQNA/ummQ8CGBkfOpOlNwIs1pzIeKt58nVLACPjVnoS73on6MTIJGnohI2VGZ6koZXkiLMJAYxME8wMAoGGBFiot2HDaJsRLSBghABGxohQhFmeQLc7QUeLdLKGjhiVnzlle0zWsGwY9GaYAEbGsHiEDoGjBFiktwsDRtuMaAEBIwQwMkaEIszyBLrdCTpapJM1dMSo/Mwp22OyhmXDoDfDBDAyhsUjdAhwIpNYAxiZRHBcBgF9BDAy+jQhokYEut0JOlqkkzV0xKjRdEoeJlnD5BG5sDcCGJneFCUfCLBIb9cAjLYZ0QICRghgZIwIRZjlCXS7E3S0SCdr6IhR+ZlTtsdkDcuGQW+GCWBkDItH6BA4SoBFerswYLTNiBYQMEIAI2NEKMIsT6DLnaCzBTpLQ2esys+gMj1maVgmBHoxTgAjY1xAwofAGQIszuEFAatwVrSEgGICGBnF4hBaXQJd7gSdLc5ZGjpjVXc2pfeepWH6sFzZEQGMTEdikgoEBhbn8CKAVTgrWkJAMQGMjGJxCK0ugS53gs4W5ywNnbGqO5vSe8/SMH1YruyIAEamIzFJBQKcyETUAEYmAhZNIaCXAEZGrzZEVplAlztBZ4tzlobOWFWeTsndZ2mYPCoX9kSgipE5Vpjjz+avk5OT0x8dvn/48/k1a+1C++hJQHKBwBkCLM7hBQGrcFa0hIBiAkWNzJbJWDIoc+Oz5NDX2oX2oVgLQmtMoMudoLPFOUtDZ6waT6/g4bI0DB6Fhj0TKGpkJlBLJzIYmZ5LidzECbAwx0sAs3hmXAEBZQSaGpnD3OePldb+vmSQDg0TJzLKKstAON3tBB0uytkaOmSmbWpma6gtIeJpTqCZkZlnlmJCch8tTdfz5/lhNI5w6IvD9I0ldI3QdXdjGj+9x3zgftD7vGnuLhoO6MrINOTKUAYIdLcTdHi6kK2hQ2bapma2htoSIp7mBJoZmdzTlJFMiT6aE2ZACLQiwKIcTxpm8cy4AgLKCGBklAlCOO0IdLcTdLgoZ2vokFm7GRY2UraGYcPQqmMCzYzMdKIysZx/g2npq9vHTmFi++hYP1KDwGUCLMrx1QCzeGZcAQFlBKoYGWU5Eg4EjhLobifocFHO1tAhM223g2wNtSVEPM0JYGSaI2dACFQiwKIcDxZm8cy4AgLKCGBklAlCOO0IdLUTdLogF9HQKbt2M219pCIaakmGOEQIYGREsDMoBAoTYDFOBwq7dHZcCQEFBDAyCkQgBBkCXe0EnS7GRTR0yk5m1l05ahENtSRDHCIEMDIi2BkUAoUJsBinA4VdOjuuhIACAhgZBSIQggyBrnaCThfjIho6ZScz6ziR0cK9pzgwMj2pSS5+CbAYp2sPu3R2XAkBBQQwMgpEIAQZAkV28zKhH9vWjv/yoZZomsVRREOMTDO9jg1UREPRDBhcmgBGRloBxodACQIsxukUYZfOjishoIAARkaBCIQgQ6CrnaDTxbiIhk7Zycy6Y4eJ53eHif5OE7Xw7yEOjEwPKpIDBFiM02sAdunsuBICCghgZBSIQAgyBIrs5mVCPzuq44W4mIaOGUqXcDENpRNhfDECGBkx9AwMgUIEWITzQcIwnyE9QECIAEZGCDzDyhPoZifoeBEupqFjhtIzsZiG0okwvhgBjIwYegaGQCECLML5IGGYz5AeICBEACMjBJ5h5Ql0sxN0vAgX09AxQ+mZWExD6UQYX4wARkYMPQNDoBABFuF8kDDMZ0gPEBAigJERAs+w8gS62Qk6XoSLaeiYofRMLKahdCKML0YAIyOGnoEhUIgAi3A+SBjmM6QHCAgRwMgIgWdYeQLd7AQdL8LFNHTMUHomFtNQOhHGFyOAkRFDz8AQKECABbgAxEtdwLIcS3qCQEMCGJmGsBlKF4EudoLOF9+iGjpnKTU7i2oolQTjihLAyIjiZ3AIZBJg8c0EeHA5LMuxpCcINCSAkWkIm6F0EehiJ+h88S2qoXOWUrOzqIZSSTCuKAGMjCh+BodAJgEW30yAnMiUA0hPEJAhgJGR4c6oCgh0sRN0bmSKauicpdSULKqhVBKMK0oAIyOKn8EhkEmAxTcTICcy5QDSEwRkCGBkZLgzqgICXewEnRuZoho6Zyk1JYtqKJUE44oSwMiI4mdwCGQSYPHNBMiJTDmA9AQBGQIYGRnujKqAgPmdICZmKK4hTJvPzOIaNs+AAaUJYGSkFWB8CKQSYNFNJbd8HUzLM6VHCFQmgJGpDJju9RIwvxNk0eVERu/0Co7M/DwMzpSGtQhgZGqRpV8I1CaAkSlPGKblmdIjBCoTwMhUBkz3egmY3wmy6HIio3d6BUdmfh4GZ0rDWgQwMrXI0i8EahPAyJQnDNPyTOkRApUJYGQqA6Z7vQTM7wRZdDmR0Tu9giMzPw+DM6VhLQIYmVpk6RcCtQlgZMoThml5pvQIgcoEMDKVAdO9XgLmd4IsupzI6J1ewZGZn4fBmdKwFgGMTC2y9AuBmgQwMfXowrYeW3qGQAUCVYzMksMefz69Tk5OzqSz9t5hwxJ9VOBIlwYJmN4JstjuK66KhrBtOpuraNg0AwaTJlDUyGyZjEPzcli880JeM0K5fUgDZ3wIFCHAYlsE49FOYFuPLT1DoAKBokZmiu+YEVkzKxiZCsrS5SYB0ztBFltOZDYr3EYD0/PQBuLuo8TIdC8xCXZJACNTT1bY1mNLzxCoQMCVkZmcP3+eH8ZHdHAwzGH8fMjuf951nO6JJTnsJsYIlvmx41CSK/cbWZ4V/IOaLl0ZGTXUCQQCuQQ4NcgluHw9bOuxpWcIVCCAkakAlS5tEDD9bJ7Fls/I2Jhmm1Ganoeb2dGgBQGMTAvKjAGB0gQwMqWJXu4PtvXY0jMEKhBoZmTG2Le+nj3lt/QV69Q+KnCjyw4ImN4JsthyItPBHJzu6fPfK9ZJaqTRiEAVI9ModoaBgE8CmJj6usO4PmNGgEAhAhiZQiDpxh4BsycyLLKnxVZNQxg3m9DVNGyWAQNJE8DISCvA+BCIJcAiG0ssvj2M45lxBQSECGBkhMAzrDwBsztBFllOZOSnT7EIzM7DYgToKJcARiaXINdDoDUBjEx94jCuz5gRIFCIAEamEEi6sUfA7E6QRZYTGXvTbTFis/OwIw2sp4KRsa4g8fsjgJGprzmM6zNmBAgUIoCRKQSSbuwRMLsTZJHlRMbedONEpiPNtKWCkdGmCPFAYIsARmaLUP77MM5nSA8QaEQAI9MINMPoI2DyRIYF9kwhVdUQ1k0mbVUNm2TAINIEMDLSCjA+BGIIsLjG0MprC+s8flwNgUYEMDKNQDOMPgImd4IsrpzI6JtKWRGZnIdZGXNxaQIYmdJE6Q8CNQlgZGrSPds3rNuxZiQIZBDAyGTA41LbBEzuBFlcOZGxPe2uiN7kPOxMA+vpYGSsK0j8vghgZNrpDet2rBkJAhkEMDIZ8LjUNgGTO0EWV05kbE87TmQ6009DOhgZDSoQAwRCCGBiQiiVbQPzsjzpDQIVCGBkKkClSxsEzJ3IsKi2383DvPpkNjcPqxNhgFgCGJlYYrSHgBQBFtX25GHenjkjQiCSAEYmEhjN+yFgbifIosqJTD/T7zQTc/OwQw2sp4SRsa4g8fshgJFprzXM2zNnRAhEEsDIRAKjeT8EzO0EWVQ5keln+nEi06GWUilhZKTIMy4EYghgYmJolW0L+7I86Q0ChQlgZAoDpTs7BEydyLCYHi2sJhrCvuqkbqJh1QzoXJoARkZaAcaHQAgBFtMQSnXawL4OV3qFQCECGJlCIOnGHgFTO0EWU05k7E2xoIhNzcOgjGjUmgBGpjVxxoNACgGMTAq1MtfAvgxHeoFAJQIYmUpg6VY/AVM7QRZTTmT0T6mkCE3Nw6QMuag2AYxMbcL0D4FcApiYXIL516NBPkN6gEAlAhiZSmDpVj8BMztBFtHFYmqmIRpUm9DNNKyWAR1LE8DISCvA+BDYIsAiukWo/vtoUJ8xI0AgkQBGJhEcl9knYGYnyCLKiYz96SavYccMvaeGkfFeAeSvnwBGRl4jNJDXgAggsEAAI0NpuCVg4kSGBXS1PptqiBZV7hVNNaySAZ1KE8DISCvA+BBYI8Diqac+0EKPFkQCgQMCGBnKwS0BEztBFk9OZDqfoSbmYecaWE8PI2NdQeLvmwBGRo++aKFHCyKBACcy1AAEhsHETpDFkxOZzieriXnYuQbW0+NExrqCxN83AYyMHn3RQo8WRAIBTmSoAQgYOJFh4dws0+a7eTTZ1CS2QXMNYwOkvXoCnMiol4gA3RJg0dQnPZro04SI3BNoZmRG1z1/nZycnP7o8P3Dn8+vWWsX2od71QGwJ6B+J8iiuVmpzTVEk01NYhs01zA2QNqrJ9DUyCwZlHkhLxX2WrvQPtQrQoAQmAiwaOqrBTTRpwkRuSeAkXFfAn4BqN8JsmhuFmdzDdFkU5PYBs01jA2Q9uoJNDUyhzTmj5XW/n55g3p+WGrHiYz6WiPAWAIsmrHE6rdHk/qMGQECkQSaGZl5XIfGI9SE5D5amq7nz4uGEA6KOewmzPipMnRar9PpvtKS027ijMIwf3YcWnLnfpXHO9IbmGruysiYUoZgfRNg569Xf7TRqw2RuSTQzMjknqaM6pTow6XKJH2UgOpn8yyWQVUroiHaBGkT2khEw9DgaGeCAEbGhEwE6Y4Ai6VeydFGrzZE5pJAMyMznagcPtM+JL70O2COncLE9uFSWZLeJKB6J8hiuanfsVPaoItyG6FNLsEz16ueh0UzpbNaBJoamVpJ0C8EuiPAYqlXUrTRqw2RuSSAkXEpO0mL7eZD0LNQhlDatxHbzaNRsEZbDcU03AqM980QwMiYkYpA3RBgkdQvNRrp14gI3RDAyLiRmkTnBNTuBFkkg4tVTEM0CtZoq6GYhluB8b4ZAhgZM1IRqBsCLJL6pUYj/RoRoRsCGBk3UpMoJzL91YDYbh4jU6yYxDQslgEdSRPAyEgrwPgQuNJh7X8FPi/FBDAyisUhNG8EMDLeFCffUwIqd4IskFEVKqohWkVptdRYVMMiGdCJNAGMjLQCjA+BQwIsjnbqAa3saEWkXRPAyHQtL8mtEVC5E2RxjCpaUQ3RKkorTmSK4KKTIwQwMpQFBDQRYHHUpMZ6LGhlRysi7ZoARqZreUmOE5m+a4ATGfv6impoHx8Z7AhgZCgDCGgiwC5fkxqcyNhRg0gdE8DIOBbfe+rqdoKYmOiSFNcQzaI1m18grmF2BnQgTQAjI60A40NgIsCiaK8W0MyeZkTcHQGMTHeSklAoAXU7QRbFUOlO24lriGbRmnEik42MDmYEMDKUBAS0EGBR1KJEeBxoFs6KlhCoRAAjUwks3eonIL6bv3Jryj9NEFk24hpiZCIVu7K5uIbZGdCBNAGMjLQCjA+BiQCLor1aQDN7mhFxdwQwMt1JSkKhBFTtBFkQQ2U7006FhmiXpN1l/35+92+k8o+kZkF0fjFGxnkBkL4SAiyGSoRICAPtEqBxCQTKEcDIlGNJT8YIqNjN81gpq2pUaIiRsa9hVgZcLE0AIyOtAONDYCTAYmi3DtDOrnZE3gUBjEwXMpJECgEVu3lOZFKkO71GhYYYGfsaZmXAxdIEMDLSCjA+BDiRsV0DGBnb+hG9eQIYGfMSkkAqARW7eUxMqnz769AwC5+Ki9VoqIIGQaQQwMikUOMaCJQkwI6+JE2ZvtBQhjujQmBHACNDGZQhYPBGrmYnaJBdmaLJ7wUN8xmK90D9i0tgPQCMjHUFpeMfb0Lja/yFVtyQ0tSAWxo3TVehYZoaE7fD+0haT1zlmABGxrH4Wakv3XgM3dDZzWdVgIqL0VCFDGlBXLpXnNEQQ5PG0vlVGBnnBRCdfsiNJqRN9MAdX2DI/HWsQl5qaBjOL+T+ENImfERadk4AI9O5wMXSS7mxKL+5q9jNK2dUrH4qdaRCwyk3tNxW+QijVQ1T7jvbUdCiMwIYmc4ELZ5O7o2Em/u6JPApXrJiHaJlvVrPvQ+JFQUDtyCAkWlB2eIYJW8cSm/wKnbzStlYKVkVGnIis10uK3UepWHJ+9J21LQwQgAjY0SoZmHWulHU6rcZmEoDYWQqgRXoFi2vhF5r3tfqV6BsGDKfAEYmn2EfPbS6MSi62UftBGuprIhHrRRr9qtCQ05kjkscWNtZGra6b9UsYvrOJoCRyUZovAOJG0HgDc442e3w4bDNyFoLNL2oWGsOEvcxa7XZcbwYmY7FXU1NeuK3vtEdgZG1EyxRNwoYlEhDsg9xDefJo2m0iSmqofR9TXIyOB4bI+NNfE0TXVMsEnXAoidBve6YnjXVNJ81xVK34uh9RwAj46UMNE9soZt/0Z1gSh0J5Z0SqtZrxDXkRCb7UVJVDTXf97ROKoNxYWQMihYVspWJ7HFR95hzVPEabOxRUws5W7kPGix5DSGrMTKjK59eJ+M/QLjwWmsX2ocG8FVjOGC5/8ccrbwa3xCr7gRDmDfONyQka23ENfR+IlOghptqaPXeaG1iNo5XhZGZF/JSYa+1C+2jMd+2w/Ww6+ghhxDVCywAIcPQRoCAB217mKc95CBQ3hqHxMhoVCUmpl53GA0Wg6Y7Qe8795iajmgrquHysfFgpPRdSQAADH5JREFU6iQ0gve+aeG5Ka5hr/fQWF0Nt8fIWBXPw26i8A1TldQ956YKtEAwPWvbc26TSRv/tPRIXqDEtQ2JkdGmyFo8HncOvd44e83L0nyqFWuv2vaa17E68HivrTUfGvSLkWkAOXsID6cvWwautx2Sp0UhewIY66BHbXvMKbSsvN9/QzkJtsPICMJfHZodwWU8lW6ios/mK+WktZxrxSWq4VJSPWpbMSeVGnJKU2vKVukXI5OK9dBopPaxdl1vJxC5jCreSHNDi76+p1yik3dyQU8a95RLqfKref/n3h+tkgojM0a99Dtgjn2tespy/vtm+D0y0frbuaDCzVRsJ1ghFztClo1UTMOtNHrSuHIuajXc0pj31RBQY2TUECEQvQQq31CbJd5LHs2AGRyoF417ycNgCRFyOAGMTDgrWkoTKHxTFdsJFs5DWhbJ8cU03Eq6F40b5KFWwy2NeV8NAYyMGikIJIhAgxtrUBw5jXrIISd/D9f2oHEPOXioNXLkX7+mBowRKHhzFdsJFszBmHrFwxXTcCuTHjRulINaDbc05n01BDiRUSMFgQQTaHSDDY4npqHl2GPypG3xX+XfFCl12hQ3g+URwMjk8eNqCQKFbrIiO8FCsUtg1zimiIahICxr3TB21RqGak07UQIYGVH8DJ5EoOFNNim+tYssx14cRucdWtbacuydlxXpXUkAI0NV2CRQ4EYrshMsELdNwepELaJhaCpWtW4ct2oNQ7WmnSgBjIwofgZPJtD4Zpsc5/xCq3EXA+CoI6taW43bUWmR6lkCGBkqwi6BzBuuyE4wM2a7YtWJXETD0FQsai0Qs2oNQ7WmnSgBjIwofgbPIiBw03UVb1ayXLwnQI1SCBCoTgAjUx0xA1QlkLFQNN8JZsRalaHhzptrGMvKkuZCsarXMFZz2jcngJFpjpwBixIQuvkm5WAp1qQEuegKApY0txQrpQaBAwIYGcrBPoHEG3DznWBinPYFqpdBcw1jU7GiuWCc6jWM1Zz2zQlgZJojZ8DiBARvwlG5WIkzKikarxKwormVOCk3CBwhgJGhLPogkHAjbr4TTIixD3HqZdFcw9hULGguHKN6DWM1p31zAhiZ5sgZsAoB4ZvxZk7a49tMgAbJBLRrrz2+ZPBc6IUARsaL0h7yjLwhN90JRsbmQa4SOTbVMDVgzdoriM2Ehqnac10TAhiZJpgZpAkBBTflxTw1x9ZEHMeDaNZec2yOS4bU4whgZOJ40VozgcibctOdYGRsmjFriq2phqmJa9ZeQWwmNEzVnuuaEMDINMHMIM0IKLgxH81Va1zNhHE8kFbttcbluFRIPY0ARiaNG1dpJRBxc266E4yISytajXE11TAVgFbtlcRlQsNU7bmuCQGMTBPMDNKUgJIb9GnO2uJpKgaD7QloqwFt8VAmEMgggJHJgMelSgkE3qSb7QQD41FKU3VYzTTMpaCtBhTFY0bD3Brg+moEMDLV0NKxKAFFN2p1u3FRYZwOTj06FZ60WxDAyLSgzBjtCQQsHM12ggGxtAfUx4jNNMzFpakGNMWyf+p2fjg5OcklzPWOCWBkHIvffepabtha4uhecMUJaqkBLXEolorQ7BHAyNjTjIhDCWzctJvtBFk8QhWLbtdMw+jIZhdoqQEtcRzgMaNhbg1wfTUCGJlqaOlYBQHpG7f0+CpEIIg9AelakB6fMoBAJQIYmUpg6VYJgZWbd5OdIItH1UJoomGpDKRrQXr8BY6mNCxVC/RTlABGpihOOlNHQPrmLT2+OkEcByRdC9LjO5ae1OsSwMjU5UvvGggs3MCb7ARZPKpWQBMNS2UgWQuSY2/wM6VhqVqgn6IEMDJFcdKZSgKSN3HJsVWK4TgoyVqQHNux5KTehgBGpg1nRpEmcORG3mQnyAJSVfkmGpbKQKoWpMYN5GZKw8CcaNaWAEamLW9GkyIgcTOXGFOKL+OGEZCoCYkxw2jQCgJFCGBkimCkExMEZjf06jtBFpDqZVFdw9IZtK6J1uMl8DKnYUKOXFKXAEamLl9610Sg9U299XiaWBPLcQKta6L1eOgOAQECGBkB6AwpSODgxl59J8giUl3o6hqWzqBlTbQcK4OTOQ0zcuXSOgQwMnW40qtWAi1v7i3H0sqbuM4SaFkTLcdCZwgIEsDICMJnaCECl27wVXeCLCJNxK2qYa0MWtRGizEK8TGpYaHc6aYMAYxMGY70YolAi5t8izEsMSfWywRa1EaLMdAUAkoINDMyo+uev05OTk5/dPj+4c/n16y1C+1DCXvCkCSwq8exItdqLSs8FpIsfKEXm9zN166N2v2HihPYzqSGgbnRrA2BpkZmadGYF/JSYa+1C+2jDVZGUU+g9s2+dv/qARPgIoHatVG7f6SFgDICGBllghBOIwKcyDQCXXcYk7v52kajdv+FJTWpYWEGdJdHoKmROQx1/lhp7e/TdZzI5InN1TMCRx53FmV08Oi0aL90ZpsAdWdbP6JXR6CZkZlnfmhKQh8L5RqZ6Xr+PL//bAgc4GC9Dqb7ivU8iJ/7Ue37sTr3UTCgYkZm68O8GoxMQW50BQEIQAACEICAAgLFjMxWLrmnKWP/JfrYipP3/RDg2bx9rdEQDe0TIINcAhiZXIJcDwEIQAACEICAGIFmRmY6UZkynX8Ve+l3wBw7hYntQ4wuA6smwG5etTxBwaFhECbVjdBQtTwmgmtqZEwQIUgIQAACEIAABMwQwMiYkYpASxNgJ1iaaPv+0LA989IjomFpov76w8j405yMIQABCEAAAt0QwMh0IyWJxBJgJxhLTF97NNSnSWxEaBhLjPZzAhgZagICEIAABCAAAbMEMDJmpSPwXALsBHMJyl+PhvIa5EaAhrkEuR4jQw1AAAIQgAAEIGCWAEbGrHQEnkuAnWAuQfnr0VBeg9wI0DCXINdjZKgBCEAAAhCAAATMEsDImJWOwHMJsBPMJSh/PRrKa5AbARrmEuR6jAw1AAEIQAACEICAWQIYGbPSEXguAXaCuQTlr0dDeQ1yI0DDXIJcj5GhBiAAAQhAAAIQMEsAI2NWOgLPJcBOMJeg/PVoKK9BbgRomEuw7PVLemjWCSNTtgboDQIQgAAEIGCawNy0aDYxI2iMjOlyI/gcAtonZ05uXq5FQ/tKo6E+DTEy+jQhIghAAAIQgAAEIghMZsaC0eREJkJYmkIAAhCAAAS8ELBgYni05KUayRMCEIAABCAQQYATmQhYNIUABCAAAQhAQA8BPiOjRwsigQAEIAABCEAgkgBGJhIYzSEAAQhAAAIQ0EGA3yOjQ4ciUYxiTq+Tk5PFPtfahfZRJGA6OUPgkP2Wjmiop3jWbqJbOo7vo6W8lsc0ZD7K69JzBHxr6Yi6ocdqa+1C++i5uCRzC/20PRpKqnR57C0DcriZCN0xHrZjPtbXOUbDpWiYj/V16nEEjAxGpse63u/M107SpqS5ceqSf2k3j5HRpdNaNCEaYmTs6GkhUowMRsZCnUbHOD/KXjI1GJlotFUvCFkEOZGpKkF25yGPlpiP2Zjp4IAARgYj42JCsPjZkBkjY0On2BOZeXvmo32dNWWAkcHIaKrHarFw46yGtmjHGJmiOEU6C3msy3wUkabbQfdG5nnPe96F97znPcN1113XbaIxiYV+MJDHEjFU27ZFw7a8S42GkSlFUq4fNJRj73HkT3/608M3fdM3Deee/exnX3jTm9403H777R45XJEzi6D9MkBDmxqyCNrU7TBqNLSvoaUMPvKRjwzf9V3fNZx71rOedeH1r3/98MpXvtJS/FVjXfoq4bEFcgpk/gG2ta8jVg2ezvcE0NBeIaw9cjg2z5iP+jRGQ32a9BzR2972tuHHf/zHh3NPecpTLtx0003DO97xjuFpT3tazzmTGwQgAAEIQAACHRD44z/+4+Guu+4aPv7xjw/nnvSkJ1144hOfuH/O9GM/9mMdpEcKEIAABCAAAQj0TOD7vu/7hve+973DZz7zmYtGZkx2PI2544479s+bOJnpWX5ygwAEIAABCNgkMJ7EvPnNbx7uu+++4VOf+tRw4cKF4dyXfdmX7f7c/ce5c8O111477B41Da94xSuGZz7zmfv/8W0mm2ITNQQgAAEIQKAHAuO3k/7wD/9w/7/xYzAPPvjg8Oijj140MTvvcnoiMyV71VVXDV/yJV8yXH311cM111wzfOEXfuG+MS8I5BKgjnIJcj0E7BAYFxheEMglMNbRX/zFXwyPPfbY8Pjjjw+f/exnh89//vOn3Y7v/3+ydz6IWQdNugAAAABJRU5ErkJggg==;" vertex="1" parent="1">
          <mxGeometry x="570" y="20" width="512.64" height="540" as="geometry" />
        </mxCell>
        <mxCell id="Xg-LjAHzdJd03FzE3i4f-3" value="&lt;div align=&quot;left&quot;&gt;Banda Passante: 0Hz atÃ© 2Hz&lt;/div&gt;&lt;div align=&quot;left&quot;&gt;AtenuaÃ§Ã£o leve (0, -5db)&lt;/div&gt;&lt;div align=&quot;left&quot;&gt;&amp;lt; 2Hz&lt;/div&gt;&lt;div align=&quot;left&quot;&gt;Banda de RejeiÃ§Ã£o, Maior atenuaÃ§Ã£o&lt;/div&gt;&lt;div align=&quot;left&quot;&gt;(-5db, -50db)&lt;/div&gt;" style="whiteSpace=wrap;html=1;align=left;rounded=1;fillColor=#f8cecc;strokeColor=#b85450;" vertex="1" parent="1">
          <mxGeometry x="30" y="570" width="510" height="80" as="geometry" />
        </mxCell>
        <mxCell id="Xg-LjAHzdJd03FzE3i4f-4" value="&lt;div&gt;X = N (0 - 18)&lt;/div&gt;&lt;div&gt;H[n] = Y = EquaÃ§Ã£o?&lt;/div&gt;&lt;div&gt;O filtro Ã© simÃ©trico (a curva se repete de forma espelhada), o que confirma que ele tem &lt;b&gt;Fase Linear&lt;/b&gt;, uma caracterÃ­stica desejÃ¡vel dos filtros FIR.&lt;/div&gt;" style="whiteSpace=wrap;html=1;align=left;fillColor=#f8cecc;strokeColor=#b85450;rounded=1;" vertex="1" parent="1">
          <mxGeometry x="570" y="570" width="510" height="80" as="geometry" />
        </mxCell>
        <mxCell id="Xg-LjAHzdJd03FzE3i4f-5" value="&lt;div&gt;&lt;div align=&quot;left&quot;&gt;n&amp;nbsp; &amp;nbsp; &amp;nbsp; &amp;nbsp; &amp;nbsp; &amp;nbsp; &amp;nbsp; &amp;nbsp; &amp;nbsp; &amp;nbsp; &amp;nbsp; &amp;nbsp;H[n]&lt;/div&gt;&lt;div align=&quot;left&quot;&gt;-------------------------------------------------&lt;/div&gt;0 -2.90196969557453540000e-003&amp;nbsp;&lt;br&gt;1 -3.16761523043536650000e-003&amp;nbsp;&lt;br&gt;2 6.10608494739135580000e-003&amp;nbsp;&lt;br&gt;3 1.79226713171295110000e-002&amp;nbsp;&lt;br&gt;4 -7.82773955786048870000e-018&amp;nbsp;&lt;br&gt;5 -4.94149823420258340000e-002&amp;nbsp;&lt;br&gt;6 -4.93686478648759160000e-002&amp;nbsp;&lt;br&gt;7 8.44751158620028890000e-002&amp;nbsp;&lt;br&gt;8 2.95185410869174550000e-001&amp;nbsp;&lt;br&gt;9 4.00000000000000020000e-001&amp;nbsp;&lt;br&gt;10 2.95185410869174550000e-001&amp;nbsp;&lt;br&gt;11 8.44751158620028890000e-002&amp;nbsp;&lt;br&gt;12 -4.93686478648759160000e-002&amp;nbsp;&lt;br&gt;13 -4.94149823420258340000e-002&amp;nbsp;&lt;br&gt;14 -7.82773955786048870000e-018&amp;nbsp;&lt;br&gt;15 1.79226713171295110000e-002&amp;nbsp;&lt;br&gt;16 6.10608494739135580000e-003&amp;nbsp;&lt;br&gt;17 -3.16761523043536650000e-003&amp;nbsp;&lt;br&gt;18 -2.90196969557453540000e-003&amp;nbsp;&lt;/div&gt;" style="whiteSpace=wrap;html=1;align=center;fillColor=#f8cecc;strokeColor=#b85450;rounded=1;" vertex="1" parent="1">
          <mxGeometry x="1050" y="720" width="270" height="310" as="geometry" />
        </mxCell>
        <mxCell id="Xg-LjAHzdJd03FzE3i4f-9" style="edgeStyle=orthogonalEdgeStyle;rounded=0;orthogonalLoop=1;jettySize=auto;html=1;entryX=0.5;entryY=0;entryDx=0;entryDy=0;strokeWidth=2;endArrow=classic;endFill=1;" edge="1" parent="1" source="Xg-LjAHzdJd03FzE3i4f-7" target="Xg-LjAHzdJd03FzE3i4f-8">
          <mxGeometry relative="1" as="geometry" />
        </mxCell>
        <mxCell id="Xg-LjAHzdJd03FzE3i4f-7" value="&lt;div&gt;SaÃ­da do Filtro implementado:&lt;/div&gt;&lt;div&gt;&lt;br&gt;&lt;/div&gt;&lt;div&gt;Entrada (x[n]): 0.07 | SaÃÂ­da Filtrada (y[n]): -0.00&lt;br&gt;&lt;br&gt;Entrada (x[n]): 0.05 | SaÃÂ­da Filtrada (y[n]): -0.00&lt;br&gt;&lt;br&gt;Entrada (x[n]): 0.04 | SaÃÂ­da Filtrada (y[n]): 0.00&lt;br&gt;&lt;br&gt;Entrada (x[n]): 0.05 | SaÃÂ­da Filtrada (y[n]): 0.00&lt;br&gt;&lt;br&gt;Entrada (x[n]): 0.05 | SaÃÂ­da Filtrada (y[n]): 0.00&lt;br&gt;&lt;br&gt;Entrada (x[n]): 0.05 | SaÃÂ­da Filtrada (y[n]): -0.00&lt;br&gt;&lt;br&gt;Entrada (x[n]): 0.05 | SaÃÂ­da Filtrada (y[n]): -0.00&lt;br&gt;&lt;br&gt;Entrada (x[n]): 0.05 | SaÃÂ­da Filtrada (y[n]): 0.00&lt;br&gt;&lt;br&gt;Entrada (x[n]): 0.05 | SaÃÂ­da Filtrada (y[n]): 0.02&lt;br&gt;&lt;br&gt;Entrada (x[n]): 0.05 | SaÃÂ­da Filtrada (y[n]): 0.04&lt;br&gt;&lt;br&gt;Entrada (x[n]): 0.05 | SaÃÂ­da Filtrada (y[n]): 0.05&lt;br&gt;&lt;br&gt;Entrada (x[n]): 0.05 | SaÃÂ­da Filtrada (y[n]): 0.05&lt;br&gt;&lt;br&gt;Entrada (x[n]): 0.05 | SaÃÂ­da Filtrada (y[n]): 0.05&lt;br&gt;&lt;br&gt;Entrada (x[n]): 0.06 | SaÃÂ­da Filtrada (y[n]): 0.05&lt;/div&gt;" style="whiteSpace=wrap;html=1;align=center;fillColor=#f8cecc;strokeColor=#b85450;rounded=1;" vertex="1" parent="1">
          <mxGeometry x="30" y="670" width="350" height="430" as="geometry" />
        </mxCell>
        <mxCell id="Xg-LjAHzdJd03FzE3i4f-8" value="&lt;div align=&quot;center&quot;&gt;ExplicaÃ§Ã£o da SaÃ­da do Filtro:&lt;/div&gt;&lt;div align=&quot;left&quot;&gt;Entrada: &lt;span class=&quot;math-inline&quot;&gt;&lt;span class=&quot;katex&quot;&gt;&lt;span aria-hidden=&quot;true&quot; class=&quot;katex-html&quot;&gt;&lt;span class=&quot;base&quot;&gt;&lt;span style=&quot;height: 0.8389em; vertical-align: -0.1944em;&quot; class=&quot;strut&quot;&gt;&lt;/span&gt;&lt;span class=&quot;mord&quot;&gt;0.07&lt;/span&gt;&lt;span class=&quot;mpunct&quot;&gt;,&lt;/span&gt;&lt;span style=&quot;margin-right: 0.1667em;&quot; class=&quot;mspace&quot;&gt;&lt;/span&gt;&lt;span class=&quot;mord&quot;&gt;0.05&lt;/span&gt;&lt;span class=&quot;mpunct&quot;&gt;,&lt;/span&gt;&lt;span style=&quot;margin-right: 0.1667em;&quot; class=&quot;mspace&quot;&gt;&lt;/span&gt;&lt;span class=&quot;mord&quot;&gt;0.04&lt;/span&gt;&lt;/span&gt;&lt;/span&gt;&lt;/span&gt;&lt;/span&gt;&lt;/div&gt;&lt;div align=&quot;left&quot;&gt;SaÃ­da: &lt;span class=&quot;math-inline&quot;&gt;&lt;span class=&quot;katex&quot;&gt;&lt;span aria-hidden=&quot;true&quot; class=&quot;katex-html&quot;&gt;&lt;span class=&quot;base&quot;&gt;&lt;span style=&quot;height: 0.8389em; vertical-align: -0.1944em;&quot; class=&quot;strut&quot;&gt;&lt;/span&gt;&lt;span class=&quot;mord&quot;&gt;â&lt;/span&gt;&lt;span class=&quot;mord&quot;&gt;0.00&lt;/span&gt;&lt;span class=&quot;mpunct&quot;&gt;,&lt;/span&gt;&lt;span style=&quot;margin-right: 0.1667em;&quot; class=&quot;mspace&quot;&gt;&lt;/span&gt;&lt;span class=&quot;mord&quot;&gt;â&lt;/span&gt;&lt;span class=&quot;mord&quot;&gt;0.00&lt;/span&gt;&lt;span class=&quot;mpunct&quot;&gt;,&lt;/span&gt;&lt;span style=&quot;margin-right: 0.1667em;&quot; class=&quot;mspace&quot;&gt;&lt;/span&gt;&lt;span class=&quot;mord&quot;&gt;0.00&lt;/span&gt;&lt;/span&gt;&lt;/span&gt;&lt;/span&gt;&lt;/span&gt;&lt;/div&gt;&lt;div align=&quot;left&quot;&gt;1. InicializaÃ§Ã£o e Atraso (Delay Line): buffer de atraso&lt;span class=&quot;math-inline&quot;&gt;&lt;span class=&quot;katex&quot;&gt;&lt;span aria-hidden=&quot;true&quot; class=&quot;katex-html&quot;&gt;&lt;span class=&quot;base&quot;&gt;&lt;span class=&quot;mord&quot;&gt;&amp;nbsp;estÃ¡ cheio de 0s, o filtro ainda nÃ£o possui informaÃ§Ãµes (dados) o suficiente para se estabilizar num valor mÃ©dio.&lt;/span&gt;&lt;/span&gt;&lt;/span&gt;&lt;/span&gt;&lt;/span&gt;&lt;/div&gt;&lt;div align=&quot;left&quot;&gt;&lt;span class=&quot;math-inline&quot;&gt;&lt;span class=&quot;katex&quot;&gt;&lt;span aria-hidden=&quot;true&quot; class=&quot;katex-html&quot;&gt;&lt;span class=&quot;base&quot;&gt;&lt;span class=&quot;mord&quot;&gt;&lt;br&gt;&lt;/span&gt;&lt;/span&gt;&lt;/span&gt;&lt;/span&gt;&lt;/span&gt;&lt;/div&gt;&lt;div align=&quot;left&quot;&gt;Entrada: &lt;span class=&quot;math-inline&quot;&gt;&lt;span class=&quot;katex&quot;&gt;&lt;span aria-hidden=&quot;true&quot; class=&quot;katex-html&quot;&gt;&lt;span class=&quot;base&quot;&gt;&lt;span style=&quot;height: 0.6444em;&quot; class=&quot;strut&quot;&gt;&lt;/span&gt;&lt;span class=&quot;mord&quot;&gt;0.05&lt;/span&gt;&lt;/span&gt;&lt;/span&gt;&lt;/span&gt;&lt;/span&gt;&lt;br&gt;&lt;/div&gt;&lt;div align=&quot;left&quot;&gt;SaÃ­da: &lt;span class=&quot;math-inline&quot;&gt;&lt;span class=&quot;katex&quot;&gt;&lt;span aria-hidden=&quot;true&quot; class=&quot;katex-html&quot;&gt;&lt;span class=&quot;base&quot;&gt;&lt;span style=&quot;height: 0.8389em; vertical-align: -0.1944em;&quot; class=&quot;strut&quot;&gt;&lt;/span&gt;&lt;span class=&quot;mord&quot;&gt;0.00&lt;/span&gt;&lt;span class=&quot;mpunct&quot;&gt;,&lt;/span&gt;&lt;span style=&quot;margin-right: 0.1667em;&quot; class=&quot;mspace&quot;&gt;&lt;/span&gt;&lt;span class=&quot;mord&quot;&gt;0.02&lt;/span&gt;&lt;span class=&quot;mpunct&quot;&gt;,&lt;/span&gt;&lt;span style=&quot;margin-right: 0.1667em;&quot; class=&quot;mspace&quot;&gt;&lt;/span&gt;&lt;span class=&quot;mord&quot;&gt;0.04&lt;/span&gt;&lt;span class=&quot;mpunct&quot;&gt;,&lt;/span&gt;&lt;span style=&quot;margin-right: 0.1667em;&quot; class=&quot;mspace&quot;&gt;&lt;/span&gt;&lt;span class=&quot;mord&quot;&gt;0.05&lt;/span&gt;&lt;/span&gt;&lt;/span&gt;&lt;/span&gt;&lt;/span&gt;&lt;/div&gt;&lt;div align=&quot;left&quot;&gt;2. Transiente: O filtro estÃ¡ processando a entrada e a saÃ­da aumenta rapidamente, caminhando em direÃ§Ã£o ao valor de regime permanente.&lt;/div&gt;&lt;div align=&quot;left&quot;&gt;&lt;br&gt;&lt;/div&gt;&lt;div align=&quot;left&quot;&gt;Entrada: &lt;span class=&quot;math-inline&quot;&gt;&lt;span class=&quot;katex&quot;&gt;&lt;span aria-hidden=&quot;true&quot; class=&quot;katex-html&quot;&gt;&lt;span class=&quot;base&quot;&gt;&lt;span style=&quot;height: 0.8389em; vertical-align: -0.1944em;&quot; class=&quot;strut&quot;&gt;&lt;/span&gt;&lt;span class=&quot;mord&quot;&gt;0.05&lt;/span&gt;&lt;span class=&quot;mpunct&quot;&gt;,&lt;/span&gt;&lt;span style=&quot;margin-right: 0.1667em;&quot; class=&quot;mspace&quot;&gt;&lt;/span&gt;&lt;span class=&quot;mord&quot;&gt;0.05&lt;/span&gt;&lt;span class=&quot;mpunct&quot;&gt;,&lt;/span&gt;&lt;span style=&quot;margin-right: 0.1667em;&quot; class=&quot;mspace&quot;&gt;&lt;/span&gt;&lt;span class=&quot;mord&quot;&gt;0.05&lt;/span&gt;&lt;span class=&quot;mpunct&quot;&gt;,&lt;/span&gt;&lt;span style=&quot;margin-right: 0.1667em;&quot; class=&quot;mspace&quot;&gt;&lt;/span&gt;&lt;span class=&quot;mord&quot;&gt;0.06&lt;/span&gt;&lt;/span&gt;&lt;/span&gt;&lt;/span&gt;&lt;/span&gt;&lt;/div&gt;&lt;div align=&quot;left&quot;&gt;SaÃ­da: &lt;span class=&quot;math-inline&quot;&gt;&lt;span class=&quot;katex&quot;&gt;&lt;span aria-hidden=&quot;true&quot; class=&quot;katex-html&quot;&gt;&lt;span class=&quot;base&quot;&gt;&lt;span style=&quot;height: 0.8389em; vertical-align: -0.1944em;&quot; class=&quot;strut&quot;&gt;&lt;/span&gt;&lt;span class=&quot;mord&quot;&gt;0.05&lt;/span&gt;&lt;span class=&quot;mpunct&quot;&gt;,&lt;/span&gt;&lt;span style=&quot;margin-right: 0.1667em;&quot; class=&quot;mspace&quot;&gt;&lt;/span&gt;&lt;span class=&quot;mord&quot;&gt;0.05&lt;/span&gt;&lt;span class=&quot;mpunct&quot;&gt;,&lt;/span&gt;&lt;span style=&quot;margin-right: 0.1667em;&quot; class=&quot;mspace&quot;&gt;&lt;/span&gt;&lt;span class=&quot;mord&quot;&gt;0.05&lt;/span&gt;&lt;span class=&quot;mpunct&quot;&gt;,&lt;/span&gt;&lt;span style=&quot;margin-right: 0.1667em;&quot; class=&quot;mspace&quot;&gt;&lt;/span&gt;&lt;span class=&quot;mord&quot;&gt;0.05&lt;/span&gt;&lt;/span&gt;&lt;/span&gt;&lt;/span&gt;&lt;/span&gt;&lt;/div&gt;&lt;div align=&quot;left&quot;&gt;3. Regime Permanente e Filtragem: Quando o filtro atinge o regime permanente, a saÃ­da se estabiliza em &lt;span class=&quot;math-inline&quot;&gt;&lt;span class=&quot;katex&quot;&gt;&lt;span aria-hidden=&quot;true&quot; class=&quot;katex-html&quot;&gt;&lt;span class=&quot;base&quot;&gt;&lt;span style=&quot;height: 0.6444em;&quot; class=&quot;strut&quot;&gt;&lt;/span&gt;&lt;span class=&quot;mord&quot;&gt;0.05&lt;/span&gt;&lt;/span&gt;&lt;/span&gt;&lt;/span&gt;&lt;/span&gt;. Isso confirma que:&lt;/div&gt;&lt;div align=&quot;left&quot;&gt;a) O valor de &lt;span class=&quot;math-inline&quot;&gt;&lt;span class=&quot;katex&quot;&gt;&lt;span aria-hidden=&quot;true&quot; class=&quot;katex-html&quot;&gt;&lt;span class=&quot;base&quot;&gt;&lt;span style=&quot;height: 0.6444em;&quot; class=&quot;strut&quot;&gt;&lt;/span&gt;&lt;span class=&quot;mord&quot;&gt;0.05&lt;/span&gt;&lt;/span&gt;&lt;/span&gt;&lt;/span&gt;&lt;/span&gt; Ã© a componente de baixa frequÃªncia (DC) do sinal de entrada.&lt;br&gt;&lt;/div&gt;&lt;div align=&quot;left&quot;&gt;b) As pequenas flutuaÃ§Ãµes de entrada (como &lt;span class=&quot;math-inline&quot;&gt;&lt;span class=&quot;katex&quot;&gt;&lt;span aria-hidden=&quot;true&quot; class=&quot;katex-html&quot;&gt;&lt;span class=&quot;base&quot;&gt;&lt;span style=&quot;height: 0.6444em;&quot; class=&quot;strut&quot;&gt;&lt;/span&gt;&lt;span class=&quot;mord&quot;&gt;0.07&lt;/span&gt;&lt;/span&gt;&lt;/span&gt;&lt;/span&gt;&lt;/span&gt; ou &lt;span class=&quot;math-inline&quot;&gt;&lt;span class=&quot;katex&quot;&gt;&lt;span aria-hidden=&quot;true&quot; class=&quot;katex-html&quot;&gt;&lt;span class=&quot;base&quot;&gt;&lt;span style=&quot;height: 0.6444em;&quot; class=&quot;strut&quot;&gt;&lt;/span&gt;&lt;span class=&quot;mord&quot;&gt;0.06&lt;/span&gt;&lt;/span&gt;&lt;/span&gt;&lt;/span&gt;&lt;/span&gt;) sÃ£o suavizadas ou rejeitadas, pois sÃ£o consideradas variaÃ§Ãµes de alta frequÃªncia (ruÃ­do), mantendo a saÃ­da estÃ¡vel no valor mÃ©dio de &lt;span class=&quot;math-inline&quot;&gt;&lt;span class=&quot;katex&quot;&gt;&lt;span aria-hidden=&quot;true&quot; class=&quot;katex-html&quot;&gt;&lt;span class=&quot;base&quot;&gt;&lt;span style=&quot;height: 0.6444em;&quot; class=&quot;strut&quot;&gt;&lt;/span&gt;&lt;span class=&quot;mord&quot;&gt;0.05&lt;/span&gt;&lt;/span&gt;&lt;/span&gt;&lt;/span&gt;&lt;/span&gt;.&lt;/div&gt;" style="whiteSpace=wrap;html=1;align=left;fillColor=#f8cecc;strokeColor=#b85450;rounded=1;" vertex="1" parent="1">
          <mxGeometry x="414" y="720" width="616" height="350" as="geometry" />
        </mxCell>
      </root>
    </mxGraphModel>
  </diagram>
</mxfile>
